<?xml version="1.0" standalone="no"?>
<!DOCTYPE svg PUBLIC "-//W3C//DTD SVG 20010904//EN"
 "http://www.w3.org/TR/2001/REC-SVG-20010904/DTD/svg10.dtd">
<svg version="1.0" xmlns="http://www.w3.org/2000/svg"
 width="500.000000pt" height="500.000000pt" viewBox="0 0 500.000000 500.000000"
 preserveAspectRatio="xMidYMid meet">
<metadata>
Created by potrace 1.14, written by Peter Selinger 2001-2017
</metadata>
<g transform="translate(0.000000,500.000000) scale(0.100000,-0.100000)"
fill="#000000" stroke="none">
<path d="M2375 4230 c3 -5 1 -12 -5 -15 -8 -5 -7 -12 2 -22 11 -14 10 -15 -10
-9 -12 4 -22 3 -22 -2 0 -12 -19 -10 -40 3 -13 8 -13 7 -1 -8 9 -11 10 -17 2
-17 -6 0 -11 -5 -11 -11 0 -6 5 -7 13 -2 17 11 31 10 39 -2 5 -6 8 -5 8 3 0 7
12 17 28 23 24 9 25 11 9 21 -14 7 -16 13 -6 24 6 7 16 11 23 7 6 -3 7 -2 3 2
-10 12 -39 16 -32 5z"/>
<path d="M2450 4231 c0 -7 -6 -11 -13 -8 -8 3 -14 -1 -14 -9 0 -7 4 -11 9 -8
4 3 17 -1 29 -9 21 -15 59 -12 59 5 0 5 -9 4 -20 -2 -21 -11 -27 -2 -10 18 7
9 7 9 -2 2 -8 -6 -16 -4 -24 8 -10 12 -13 13 -14 3z"/>
<path d="M2239 4208 c-9 -30 -6 -50 6 -54 21 -9 19 -19 -7 -32 -21 -9 -21 -10
7 -7 17 1 34 3 39 4 5 0 -4 13 -19 27 -25 23 -27 27 -12 36 21 11 22 28 2 28
-8 0 -15 -1 -16 -2z"/>
<path d="M2458 4169 c16 -21 25 -62 11 -54 -5 4 -9 12 -9 20 0 8 -4 16 -9 20
-6 3 -8 -3 -6 -14 2 -14 -1 -18 -11 -14 -7 3 -11 10 -7 17 5 8 3 8 -8 -1 -8
-6 -23 -13 -34 -15 -11 -1 -26 -10 -33 -18 -10 -13 -11 -12 -6 5 5 20 5 20 -8
0 -9 -14 -24 -21 -44 -20 -19 0 -30 -4 -27 -11 2 -6 -5 -14 -16 -17 -19 -5
-23 -1 -20 20 0 3 -6 10 -15 15 -9 5 -13 15 -9 21 4 7 0 6 -10 -2 -16 -13 -14
-36 3 -26 4 3 10 -1 13 -8 3 -7 -3 -13 -13 -14 -21 -2 -46 48 -36 72 3 9 2 14
-3 11 -12 -8 -20 -65 -8 -63 5 1 13 -8 17 -20 7 -17 6 -21 -6 -16 -7 3 -14 10
-14 15 0 6 -6 6 -14 -1 -8 -7 -13 -21 -11 -32 2 -11 0 -17 -5 -14 -4 3 -10 2
-13 -2 -2 -5 -2 -2 -1 5 3 11 -8 16 -28 14 -3 -1 -9 5 -12 14 -4 10 -2 13 7 8
9 -6 8 -3 -1 8 -11 14 -11 16 2 14 9 -1 19 -6 23 -11 4 -4 2 -5 -4 -1 -9 5
-11 2 -7 -9 6 -14 8 -14 21 2 8 11 11 12 7 3 -6 -13 -5 -13 7 -1 11 10 11 15
1 18 -6 3 -9 10 -6 16 5 9 3 9 -6 0 -10 -9 -18 -8 -37 4 l-24 16 5 -54 c3 -34
2 -49 -4 -39 -5 8 -6 18 -4 22 8 13 -26 22 -39 9 -8 -8 -8 -14 2 -23 11 -11
13 -10 8 5 -4 11 -3 16 4 12 5 -4 7 -16 3 -27 -4 -14 -2 -18 5 -14 6 4 11 2
11 -4 0 -7 -6 -10 -14 -7 -17 7 -39 -16 -28 -28 4 -5 -1 -5 -12 -1 -14 5 -17
3 -12 -10 5 -14 4 -15 -8 -5 -8 7 -16 8 -18 4 -3 -4 -3 -3 -2 4 2 6 -3 17 -11
23 -10 8 -17 7 -29 -5 -9 -9 -16 -21 -16 -28 0 -6 6 -2 14 9 8 10 18 16 22 11
4 -4 2 -7 -4 -7 -7 0 -12 -5 -12 -11 0 -5 5 -7 12 -3 6 4 8 3 5 -3 -4 -5 -19
-9 -34 -7 -15 1 -35 3 -43 3 -12 1 -12 4 3 15 21 17 22 25 1 22 -24 -4 -39
-35 -20 -42 12 -5 13 -9 3 -19 -7 -7 -15 -11 -18 -9 -4 2 -10 -3 -13 -12 -3
-8 -10 -13 -15 -9 -5 3 -12 1 -15 -4 -3 -5 2 -12 11 -16 10 -3 19 -1 21 4 4
13 22 14 22 2 0 -5 -9 -12 -19 -16 -13 -4 -18 -12 -15 -23 5 -14 4 -14 -4 -2
-6 8 -8 18 -5 24 3 5 1 6 -5 2 -6 -4 -9 -13 -5 -21 3 -8 0 -15 -7 -15 -10 0
-10 -3 -1 -14 10 -12 8 -13 -10 -9 -15 4 -20 3 -15 -5 5 -8 -1 -12 -14 -12
-12 0 -19 -4 -15 -9 8 -15 -23 -31 -67 -34 -13 -1 -14 -4 -6 -15 9 -10 8 -12
-3 -10 -8 2 -17 7 -20 11 -3 5 -9 2 -12 -7 -4 -9 -1 -15 5 -13 6 1 13 -4 16
-12 2 -8 0 -11 -6 -7 -5 3 -12 -1 -15 -9 -4 -8 -15 -12 -26 -10 -15 3 -18 0
-14 -12 4 -11 2 -14 -5 -9 -16 10 -15 -16 1 -34 6 -7 -2 -3 -20 9 l-32 21 5
-24 c2 -14 -1 -28 -7 -32 -8 -5 -9 -3 -4 6 5 9 4 11 -3 6 -7 -4 -12 -18 -12
-32 0 -15 -4 -23 -10 -19 -6 4 -7 11 -4 17 4 6 3 8 -3 5 -5 -3 -8 -21 -6 -39
3 -19 1 -28 -4 -22 -5 7 -16 8 -28 3 -18 -7 -18 -8 -2 -8 10 -1 15 -6 12 -12
-4 -6 -13 -8 -21 -5 -8 3 -11 0 -8 -9 3 -8 -6 -21 -20 -30 -14 -10 -23 -21
-20 -26 3 -5 -2 -9 -11 -9 -9 0 -13 -5 -9 -11 4 -8 0 -8 -15 0 -24 13 -28 23
-6 15 10 -4 13 0 10 15 -2 11 1 24 7 27 7 4 8 2 4 -4 -4 -7 -2 -12 4 -12 6 0
10 8 8 18 -2 10 2 16 11 14 11 -2 12 0 3 11 -9 10 -9 16 0 25 15 15 -4 38 -22
27 -8 -5 -8 -10 1 -21 9 -11 8 -14 -5 -14 -9 0 -16 5 -16 12 0 6 -3 8 -6 5 -4
-4 -2 -12 4 -20 10 -12 2 -39 -11 -39 -20 0 -46 -11 -42 -18 3 -5 0 -12 -6
-16 -7 -4 -9 -3 -6 2 3 6 1 16 -4 24 -7 11 -8 8 -5 -10 3 -14 5 -29 5 -34 1
-5 9 -2 19 5 15 13 16 12 4 -3 -11 -14 -10 -18 3 -26 23 -12 16 -56 -10 -59
l-20 -3 20 9 c16 8 17 10 4 10 -17 1 -36 31 -20 31 5 0 12 -6 14 -12 4 -9 6
-9 6 1 1 8 -6 23 -15 33 -16 17 -18 17 -30 0 -10 -14 -10 -20 4 -37 17 -20 17
-20 -5 -1 -13 10 -20 23 -16 29 4 6 1 7 -6 2 -7 -4 -11 -18 -8 -31 2 -13 1
-21 -4 -19 -4 3 -10 -1 -13 -7 -3 -7 -3 -3 0 10 3 13 1 22 -6 22 -6 0 -8 -4
-5 -10 3 -5 2 -10 -4 -10 -6 0 -8 -6 -5 -14 9 -22 -16 -30 -32 -10 -14 18 -14
18 -5 -3 9 -17 7 -25 -5 -37 -9 -9 -19 -14 -24 -11 -5 3 -12 0 -16 -6 -4 -8
-3 -9 4 -5 7 4 12 1 12 -8 0 -17 -10 -20 -26 -8 -5 4 -1 0 8 -10 23 -21 23
-27 -1 -21 -10 3 -22 -1 -26 -8 -6 -8 -4 -10 6 -4 12 8 12 6 0 -8 -7 -9 -17
-15 -21 -12 -5 3 -12 0 -16 -6 -4 -7 -3 -9 3 -6 6 4 13 1 16 -6 3 -8 -4 -19
-15 -26 -11 -7 -17 -15 -14 -18 3 -4 1 -12 -5 -20 -22 -26 3 -12 36 20 24 23
32 37 25 45 -7 9 -7 9 2 2 8 -7 17 -1 30 20 10 17 30 36 46 42 20 8 23 12 11
15 -13 3 -15 8 -6 26 10 22 10 22 33 3 24 -22 21 -48 -4 -44 -21 4 -29 -31
-10 -44 9 -6 6 -7 -9 -3 -18 5 -23 2 -23 -13 0 -16 -5 -19 -23 -15 -12 3 -18
1 -12 -4 16 -12 12 -38 -5 -39 -8 -1 -19 -2 -24 -3 -5 0 -3 -8 4 -16 7 -8 11
-15 9 -16 -31 -6 -38 -6 -33 2 3 5 -2 9 -11 9 -9 0 -13 -4 -10 -10 3 -5 -1
-10 -9 -10 -10 0 -13 -7 -11 -21 6 -30 13 -35 28 -19 8 9 8 11 0 6 -6 -3 -15
-1 -18 5 -5 7 0 10 11 7 11 -2 19 -8 19 -13 0 -6 4 -15 8 -22 4 -6 3 -14 -2
-17 -13 -8 -59 14 -63 29 -2 10 -6 10 -16 -1 -10 -12 -10 -14 2 -14 11 0 8 -7
-10 -25 -14 -14 -29 -23 -35 -20 -5 3 -6 -1 -3 -10 6 -14 11 -11 35 14 15 17
32 31 38 31 15 0 23 -18 11 -25 -5 -3 -10 -2 -10 4 0 6 -7 8 -15 5 -8 -4 -15
-12 -15 -20 0 -8 -4 -14 -10 -14 -5 0 -8 -13 -6 -30 2 -16 -1 -30 -6 -30 -5 0
-6 -5 -2 -12 5 -7 3 -8 -5 -4 -7 5 -10 13 -8 20 3 7 -1 23 -9 37 l-14 24 4
-27 c3 -16 -1 -34 -8 -41 -7 -6 -11 -17 -9 -24 2 -6 0 -14 -6 -17 -6 -4 -7
-14 -4 -23 4 -11 3 -14 -5 -9 -8 5 -10 1 -5 -10 3 -10 2 -15 -3 -12 -12 8 -11
-59 1 -71 7 -7 16 -7 25 -1 9 6 10 10 3 10 -6 0 -11 9 -10 19 0 11 5 17 9 15
4 -3 8 0 8 5 0 6 -6 11 -12 11 -10 0 -9 3 1 9 7 5 10 14 7 20 -4 6 -2 11 3 11
6 0 11 -3 12 -7 4 -46 17 -75 29 -68 6 4 7 -1 3 -11 -5 -15 -7 -15 -15 0 -5 9
-13 16 -19 16 -5 0 -2 -11 7 -25 15 -23 15 -24 -8 -20 -22 4 -22 4 -4 -10 11
-8 14 -15 8 -15 -18 0 -25 -3 -49 -26 -28 -26 -29 -34 -5 -35 13 0 14 -2 2 -6
-8 -3 -18 -11 -22 -17 -11 -15 -10 -46 1 -46 5 0 8 8 7 17 -1 12 8 17 29 19
39 2 49 -4 34 -22 -6 -7 -15 -12 -19 -9 -11 7 -23 -13 -26 -44 -1 -14 -2 -30
-3 -34 -1 -5 -5 -5 -11 -2 -5 3 -7 0 -5 -7 4 -9 -2 -14 -15 -14 -11 0 -20 4
-20 8 0 4 5 8 10 8 6 0 8 14 6 33 -3 17 -3 26 0 19 5 -10 9 -10 20 -1 8 6 14
16 14 21 0 6 -7 5 -15 -2 -8 -7 -15 -9 -15 -4 0 4 -5 3 -12 -4 -10 -10 -14
-30 -17 -85 -1 -10 -5 -15 -11 -12 -5 3 -10 1 -10 -4 0 -6 5 -11 11 -11 6 0 7
-5 2 -12 -12 -21 -15 -58 -3 -58 5 0 10 -5 10 -11 0 -5 -4 -8 -8 -5 -4 2 -8
-15 -8 -39 0 -24 4 -41 8 -39 5 3 6 10 3 15 -4 5 -2 9 3 9 17 0 22 -13 9 -28
-6 -9 8 -3 33 13 25 16 39 21 32 13 -9 -12 -10 -18 -2 -23 8 -5 8 -11 -1 -21
-6 -7 -9 -21 -5 -29 8 -21 -7 -19 -21 4 -10 16 -9 20 10 25 18 4 19 8 9 18
-11 11 -16 9 -28 -6 -17 -23 -18 -36 -3 -36 5 0 7 -4 4 -10 -3 -6 -1 -10 5
-10 6 0 9 -4 5 -9 -3 -5 -1 -13 5 -16 8 -5 7 -12 -2 -23 -12 -15 -11 -16 5 -3
15 12 20 12 30 1 8 -8 8 -11 1 -7 -7 4 -17 1 -23 -6 -8 -11 -7 -14 7 -14 9 0
22 2 27 6 6 3 4 -1 -5 -9 -22 -20 -14 -90 10 -90 8 0 7 7 0 23 -11 21 -11 21
4 3 18 -23 8 -40 -20 -34 -14 2 -18 11 -16 31 3 19 -1 27 -12 27 -9 0 -16 -5
-16 -11 0 -5 4 -8 8 -5 5 3 9 -1 9 -9 0 -8 -3 -14 -6 -13 -18 2 -31 -3 -31
-11 0 -6 9 -8 21 -6 15 3 19 0 15 -11 -4 -11 0 -13 18 -10 16 3 23 0 22 -10
-3 -21 -16 -29 -16 -10 0 9 -5 14 -10 11 -6 -4 -8 -11 -5 -16 3 -5 -1 -6 -9
-3 -9 3 -16 1 -16 -5 0 -6 7 -11 15 -11 13 0 14 -4 5 -21 -6 -11 -16 -19 -21
-17 -13 4 -7 24 6 20 6 -1 3 3 -6 10 -9 7 -15 21 -13 30 1 10 -3 21 -8 25 -7
4 -8 1 -3 -7 6 -10 3 -12 -11 -7 -16 6 -17 5 -4 -6 20 -17 23 -36 8 -55 -9
-10 -9 -13 -1 -9 18 11 26 -12 11 -31 -8 -10 -1 -7 16 6 33 26 43 27 43 8 0
-8 -6 -12 -12 -10 -7 3 -20 -7 -30 -22 l-17 -27 23 17 c13 9 32 16 42 16 10 0
16 4 13 8 -2 4 0 14 5 22 7 11 8 9 6 -9 -2 -14 -9 -27 -15 -29 -7 -2 -12 -11
-12 -19 0 -13 -2 -14 -17 -2 -17 13 -17 13 -3 -5 8 -10 15 -24 16 -30 0 -6 2
-17 2 -24 1 -7 7 -10 14 -6 8 5 9 2 4 -11 -5 -15 -4 -16 9 -5 8 7 13 20 10 29
-5 19 1 29 35 56 19 15 22 16 11 3 -15 -20 -2 -25 17 -6 8 8 12 9 12 1 0 -6
-5 -13 -12 -15 -12 -4 -19 -58 -7 -58 11 0 20 31 12 42 -4 7 -1 8 6 4 7 -5 10
-14 7 -21 -2 -7 3 -23 12 -36 15 -24 15 -24 -5 -6 -11 9 -22 14 -26 11 -3 -3
-14 -1 -24 5 -10 6 -12 11 -5 11 17 0 15 27 -3 33 -16 7 -29 -6 -18 -17 4 -4
8 -12 9 -19 1 -7 5 -20 9 -29 5 -13 2 -16 -17 -12 l-23 5 23 -11 c15 -6 21
-15 16 -22 -4 -7 -4 -10 1 -6 4 4 14 0 21 -10 10 -14 15 -15 25 -4 7 6 8 12 3
12 -6 0 -19 7 -30 16 -10 8 -14 13 -7 10 6 -4 16 2 22 11 9 17 10 17 16 1 4
-10 12 -15 18 -11 5 3 7 1 3 -5 -3 -6 -2 -13 4 -17 6 -4 7 -12 3 -18 -4 -7 -8
-16 -8 -21 0 -5 -6 -10 -13 -12 -7 -1 -8 0 -2 3 5 2 8 9 5 14 -3 5 -15 3 -25
-3 -19 -12 -19 -13 3 -26 13 -8 15 -11 4 -8 -15 5 -16 3 -7 -14 6 -11 8 -24 5
-29 -3 -5 4 -7 15 -4 12 3 20 0 20 -6 0 -7 4 -10 9 -7 4 3 8 -2 8 -12 0 -36 3
-43 16 -36 8 5 7 2 -2 -9 -13 -16 -12 -17 15 -7 l29 10 -25 -19 c-18 -14 -28
-17 -38 -9 -9 8 -11 7 -6 -5 3 -9 14 -15 24 -14 10 1 17 4 15 7 -2 4 2 7 9 7
15 0 10 -27 -8 -40 -6 -5 -1 -6 11 -2 44 12 63 14 58 4 -4 -5 -10 -7 -15 -4
-5 3 -11 1 -15 -5 -3 -5 -1 -10 6 -10 7 0 9 -3 6 -6 -9 -9 11 -44 25 -44 6 0
5 7 -3 18 -13 15 -12 16 4 3 9 -7 17 -20 17 -27 0 -8 5 -14 12 -14 6 0 3 -7
-8 -15 -18 -14 -17 -14 9 -5 28 10 39 -3 11 -14 -12 -5 -14 -10 -5 -20 6 -7 8
-16 4 -20 -4 -4 1 -4 12 0 11 4 23 12 27 18 5 7 8 7 8 -2 0 -7 4 -11 9 -8 5 3
7 -10 5 -29 -1 -19 1 -35 7 -35 5 0 10 15 10 33 1 23 3 26 6 9 3 -14 9 -20 16
-15 9 5 9 3 0 -8 -14 -17 -2 -41 21 -45 9 -1 14 2 10 7 -3 5 -9 7 -14 4 -4 -3
-11 2 -14 10 -4 13 -2 13 14 5 10 -5 22 -15 25 -20 4 -6 11 -7 17 -4 6 4 8 2
4 -4 -3 -6 2 -17 12 -24 10 -7 24 -22 30 -33 6 -11 12 -14 12 -7 0 7 5 10 11
6 8 -4 7 -9 -2 -15 -12 -8 -12 -11 1 -18 8 -5 17 -8 21 -6 3 3 15 -5 25 -18
12 -13 13 -17 3 -9 -9 6 -18 10 -21 7 -3 -3 -16 5 -31 19 -16 15 -30 20 -39
15 -10 -7 -9 -9 5 -9 11 0 15 -4 11 -12 -4 -6 -3 -8 3 -5 11 7 66 -27 58 -35
-3 -3 5 -5 17 -4 15 1 22 7 20 16 -3 12 -1 13 10 2 11 -11 10 -15 -5 -24 -18
-9 -18 -10 0 -24 10 -7 23 -13 28 -13 6 0 2 6 -8 13 -13 10 -15 16 -6 21 6 4
15 2 19 -5 4 -6 11 -12 16 -12 5 1 8 -6 6 -13 -2 -10 3 -13 14 -8 14 5 15 3 4
-18 -12 -22 -12 -23 3 -10 10 7 17 12 18 10 0 -2 2 -12 4 -22 2 -11 7 -22 11
-25 4 -4 4 1 1 10 -3 9 1 22 9 28 19 17 18 27 -5 35 -10 3 -21 16 -25 28 l-5
22 17 -22 c12 -15 25 -21 45 -19 15 2 30 -1 33 -6 3 -4 2 -8 -3 -7 -18 3 -36
-1 -30 -8 4 -3 2 -13 -5 -20 -18 -22 -17 -52 1 -46 9 3 5 -4 -9 -16 -14 -11
-19 -21 -12 -21 7 0 10 -5 6 -12 -4 -7 -3 -8 5 -4 6 4 9 11 6 16 -3 4 2 13 11
20 13 12 14 10 10 -14 -4 -23 -3 -26 9 -16 8 7 12 16 9 21 -3 5 0 9 5 9 6 0
11 4 11 10 0 5 -7 6 -17 3 -12 -5 -14 -3 -8 7 5 8 4 11 -2 7 -6 -4 -17 1 -24
10 -12 15 -12 16 3 10 12 -4 15 -2 12 7 -3 8 0 17 7 22 8 4 10 3 5 -4 -5 -8 0
-11 14 -9 12 2 26 10 31 18 5 9 9 10 9 2 0 -6 -5 -15 -10 -18 -6 -4 -8 -10 -6
-14 3 -4 -1 -8 -9 -8 -8 0 -11 5 -8 10 4 6 1 7 -6 3 -15 -10 -7 -19 19 -23 20
-3 45 29 32 42 -4 5 -1 5 6 1 7 -4 10 -12 7 -17 -9 -13 9 -11 24 4 10 10 11 8
5 -8 -7 -18 -6 -19 12 -5 10 8 16 10 12 6 -4 -5 -4 -14 2 -20 6 -8 3 -12 -11
-13 -10 -1 -19 2 -19 8 0 5 -9 9 -20 9 -11 0 -20 -7 -20 -16 0 -8 -4 -13 -8
-10 -9 5 -9 -30 0 -39 3 -3 11 2 19 12 9 11 10 14 2 9 -7 -4 -13 -2 -13 3 0 6
9 11 20 11 23 0 26 -13 6 -29 -11 -10 -12 -19 -4 -42 13 -37 3 -51 -12 -18
-10 22 -10 22 -6 2 2 -12 -1 -24 -8 -27 -7 -3 -7 -5 2 -5 7 -1 10 -6 7 -11 -5
-8 -11 -7 -21 1 -19 15 -30 4 -15 -15 8 -9 8 -16 2 -20 -5 -4 -12 -2 -16 4 -3
5 -4 10 0 10 3 0 -1 13 -9 29 -9 16 -13 31 -11 35 3 3 2 4 -2 1 -3 -3 -11 3
-18 12 -10 13 -11 11 -7 -16 3 -26 1 -30 -12 -25 -17 7 -22 24 -7 24 5 0 4 11
-2 25 -7 14 -16 25 -20 25 -5 0 -6 -3 -4 -7 3 -5 1 -17 -3 -27 -7 -21 17 -59
32 -50 4 3 8 -3 9 -13 0 -16 1 -16 9 2 8 19 9 18 9 -4 1 -13 4 -22 7 -18 3 3
17 -6 30 -20 22 -24 30 -20 25 10 -1 5 4 7 11 4 7 -2 12 -10 10 -16 -1 -7 2
-10 8 -6 16 10 34 -6 19 -17 -10 -6 -7 -7 10 -3 16 5 21 4 17 -4 -4 -6 -2 -10
4 -9 7 2 14 -5 15 -15 2 -11 7 -22 11 -25 4 -4 4 1 1 11 -8 22 28 24 41 2 6
-12 14 -14 33 -6 20 7 21 10 8 16 -11 4 -15 14 -13 28 3 15 1 13 -7 -6 -6 -15
-15 -25 -20 -21 -5 3 -5 13 2 25 9 18 8 19 -9 10 -11 -6 -22 -8 -24 -5 -3 2
-15 6 -26 9 -25 4 -71 36 -72 48 0 5 5 5 10 2 6 -4 9 -1 8 7 -2 7 3 12 9 11 7
-2 12 0 12 5 -3 18 2 33 9 28 4 -2 8 5 9 17 0 12 -1 16 -4 10 -3 -7 -9 -13
-14 -13 -6 0 -8 4 -4 9 3 5 1 12 -5 16 -6 4 -7 11 -4 17 4 6 10 5 16 -3 8 -11
9 -10 4 4 -3 11 0 17 10 17 8 0 12 4 9 10 -3 5 -2 10 4 10 5 0 9 -9 8 -19 0
-11 -5 -17 -9 -15 -4 3 -5 -2 -2 -10 7 -19 27 -26 43 -16 9 5 10 10 2 14 -6 4
-11 2 -11 -4 0 -6 -5 -8 -11 -4 -8 4 -8 9 0 17 8 8 14 8 23 -1 17 -17 33 -15
18 3 -7 9 -8 15 -2 15 5 0 13 -7 16 -16 3 -8 9 -13 14 -10 4 2 8 -4 8 -14 0
-10 -4 -16 -8 -14 -15 10 -8 -10 11 -30 11 -12 21 -27 23 -35 5 -23 41 -57 46
-43 5 15 23 16 19 1 -1 -6 4 -14 12 -17 8 -2 11 0 8 5 -3 5 0 10 8 10 11 0 12
-4 4 -13 -7 -9 -7 -18 0 -31 10 -17 10 -16 11 3 0 25 28 40 44 24 8 -8 5 -9
-9 -5 -16 5 -16 4 3 -7 18 -11 20 -16 10 -27 -8 -8 -2 -7 12 3 14 8 36 14 48
11 29 -5 28 3 0 15 -16 6 -18 9 -7 9 9 1 22 -6 29 -14 15 -18 31 -20 26 -2 -1
6 -1 9 1 4 3 -4 9 -4 15 -1 5 3 3 -7 -6 -23 -12 -24 -12 -30 -1 -30 7 0 11 6
8 13 -7 18 17 29 65 30 44 1 61 -20 17 -22 -14 -1 -22 2 -19 7 3 5 1 9 -4 9
-10 0 -24 -41 -17 -49 3 -2 5 1 5 8 0 8 7 10 21 6 16 -6 20 -4 14 6 -6 11 -5
11 5 2 7 -6 19 -9 26 -6 8 3 14 0 14 -6 0 -18 14 -13 29 10 12 20 11 21 -8 16
-12 -3 -23 -2 -26 3 -2 4 12 6 33 5 53 -4 54 -4 46 -16 -4 -8 -9 -7 -15 2 -5
9 -10 5 -14 -13 -6 -25 -45 -47 -45 -26 0 5 -4 7 -9 3 -5 -3 -13 -1 -16 5 -5
8 -11 7 -21 -1 -7 -6 -11 -16 -8 -21 4 -6 10 -5 15 3 4 7 11 10 15 6 4 -3 1
-15 -7 -24 -13 -17 -13 -17 6 -1 15 12 25 14 38 7 13 -8 19 -6 23 5 3 9 11 13
16 10 6 -4 7 2 3 16 -5 15 -3 20 3 16 6 -3 14 -2 17 4 5 8 11 7 21 -1 11 -9
15 -8 20 4 3 9 3 20 0 26 -4 5 -2 12 3 16 6 3 15 -3 20 -14 6 -11 8 -21 3 -24
-4 -2 -2 -2 5 -1 7 2 15 -1 18 -6 4 -6 12 -10 18 -10 8 0 8 3 -2 9 -16 10 -3
20 22 16 9 -2 15 1 11 6 -3 5 2 12 10 15 9 3 13 10 10 15 -3 5 2 6 10 3 25 -9
39 5 24 24 -11 15 -10 15 8 0 19 -17 21 -17 38 0 11 9 15 11 11 3 -5 -9 -3
-12 6 -9 8 3 13 11 11 17 -1 7 2 10 8 6 6 -3 8 -11 5 -16 -4 -5 1 -9 10 -9 10
0 13 5 9 12 -4 6 -3 8 4 4 6 -3 12 2 14 11 3 15 5 14 10 -5 3 -12 2 -20 -3
-16 -5 3 -9 0 -9 -6 0 -6 -10 -11 -22 -10 -44 4 -51 1 -39 -14 9 -11 6 -13
-13 -11 -14 2 -29 6 -34 9 -6 3 -8 -2 -5 -13 4 -16 12 -19 41 -15 20 2 47 12
60 20 14 9 21 11 18 5 -13 -20 13 -11 34 11 17 19 20 20 14 5 -6 -17 -5 -18
15 -6 11 8 20 18 18 24 -4 12 -40 13 -48 2 -3 -5 -9 -2 -12 6 -4 10 1 14 16
13 12 0 23 4 24 9 0 6 -3 9 -9 7 -5 -1 -7 2 -3 8 5 8 11 8 21 -1 11 -9 15 -8
20 6 5 12 9 13 14 5 4 -7 13 -9 19 -6 6 4 9 11 6 16 -3 5 -2 11 3 14 5 3 9 -1
10 -9 1 -8 3 -22 4 -30 1 -15 27 -29 36 -20 3 3 -3 13 -12 24 -12 13 -14 21
-6 26 6 4 14 4 17 1 3 -3 13 0 22 7 14 10 14 10 3 -5 -8 -9 -21 -14 -30 -12
-11 4 -8 -2 8 -16 14 -12 24 -24 23 -26 -8 -12 -1 -16 9 -6 8 8 8 15 -3 28
-12 16 -12 17 5 11 13 -5 17 -3 13 6 -3 8 1 14 8 14 8 0 12 -9 9 -26 -3 -20
-2 -23 6 -11 8 12 10 11 10 -6 0 -11 -6 -21 -12 -22 -7 -1 -31 -3 -52 -5 -29
-3 -42 -10 -47 -25 -9 -24 -17 -27 -39 -11 -12 8 -11 9 6 5 14 -4 21 -2 21 8
0 14 -21 11 -44 -6 -7 -6 -17 -7 -23 -3 -5 3 -10 -1 -10 -10 0 -12 -6 -15 -22
-11 -13 3 -17 3 -10 0 6 -3 12 -10 12 -15 0 -6 -5 -7 -12 -3 -7 4 -8 3 -4 -5
6 -8 12 -9 20 -2 7 6 17 7 21 3 5 -4 5 -1 1 6 -4 7 -1 12 8 12 8 0 19 -8 25
-17 8 -15 12 -16 23 -5 11 11 11 13 -1 10 -7 -2 -15 2 -17 8 -3 6 9 9 28 8 24
-2 38 3 50 19 16 20 18 20 18 4 0 -10 5 -15 10 -12 6 4 8 11 5 16 -3 5 1 6 9
3 11 -4 16 0 16 11 0 9 4 14 9 11 5 -3 7 -16 5 -29 -4 -20 -4 -20 5 -2 4 11 7
22 6 25 -2 3 12 10 31 16 31 10 50 2 22 -9 -10 -4 -10 -6 -1 -6 14 -1 23 11
28 41 6 28 20 42 34 34 17 -11 13 -29 -4 -22 -8 3 -15 1 -15 -4 0 -6 6 -10 13
-10 8 0 7 -4 -3 -11 -13 -9 -13 -10 1 -6 9 3 22 1 28 -4 8 -6 8 -5 1 3 -14 17
-12 28 6 28 9 0 12 -5 8 -12 -5 -7 -3 -8 6 -3 9 5 5 14 -16 30 -16 13 -24 27
-20 34 4 6 12 9 17 5 5 -3 6 -10 3 -16 -4 -7 -2 -8 5 -4 6 4 9 11 6 16 -3 5
-1 12 5 15 16 10 -9 37 -27 31 -8 -3 -11 -1 -8 4 9 14 21 12 39 -5 13 -13 16
-13 30 0 18 19 23 19 23 0 0 -8 -5 -11 -11 -8 -6 4 -5 -1 3 -10 16 -20 42 -22
60 -4 11 10 12 8 6 -10 -4 -15 -2 -23 5 -23 8 0 10 10 8 25 -3 14 -1 28 3 31
5 3 9 -8 9 -25 l0 -30 30 17 c31 18 57 63 46 81 -4 5 -2 12 4 16 16 10 24 -23
10 -40 -8 -10 -9 -15 -1 -15 6 0 13 11 17 24 4 17 11 23 22 19 14 -4 15 -3 2
5 -8 6 -17 9 -21 6 -4 -2 -9 7 -11 21 -3 15 0 26 9 29 8 3 11 1 8 -4 -3 -6 1
-7 10 -4 14 6 14 8 -1 19 -12 8 -14 14 -5 19 6 4 9 12 6 17 -10 15 2 10 16 -8
12 -14 12 -16 0 -8 -10 5 -12 4 -7 -4 6 -9 11 -9 22 0 7 6 11 16 7 22 -4 6 0
8 9 4 12 -4 14 -1 11 14 -4 13 -1 19 8 17 8 -2 13 3 11 10 -1 8 2 11 8 7 5 -3
10 0 10 7 0 10 3 9 9 -2 6 -8 7 -18 5 -22 -3 -4 2 -8 10 -8 18 0 21 16 6 25
-8 5 -8 11 -1 19 7 9 7 16 -1 24 -8 8 -9 12 -1 12 15 0 25 -28 12 -35 -19 -13
2 -23 41 -20 22 2 38 0 35 -5 -3 -5 -1 -12 5 -15 6 -4 10 -3 9 2 -4 14 13 44
39 72 14 14 22 19 18 11 -5 -9 -2 -8 7 2 8 10 18 14 22 10 5 -4 5 1 2 10 -4
11 -2 15 7 12 8 -3 16 3 18 14 5 17 3 18 -23 9 -15 -6 -26 -14 -24 -17 2 -3
-4 -11 -14 -17 -19 -12 -43 0 -54 29 -4 12 0 19 14 23 14 5 18 13 15 31 -4 22
-3 24 10 13 20 -16 28 -5 15 20 -8 15 -8 22 1 27 7 4 10 4 6 -1 -4 -4 0 -14
10 -22 10 -9 11 -12 2 -7 -9 4 -12 3 -7 -2 5 -5 12 -9 15 -9 4 0 13 -4 21 -9
10 -6 12 -5 7 2 -7 12 4 16 34 13 10 -1 11 1 4 6 -6 4 -10 16 -8 26 1 10 -2
14 -9 10 -7 -4 -8 0 -3 12 4 11 0 26 -11 38 -11 12 -12 17 -4 12 11 -6 13 -4
8 11 -7 18 -6 18 7 2 7 -10 16 -18 20 -18 8 0 3 24 -7 31 -5 3 -1 9 8 12 9 4
14 3 11 -1 -3 -4 4 -13 14 -19 14 -10 18 -9 16 2 -1 8 -5 18 -9 21 -10 11 -9
26 2 20 5 -3 12 5 15 19 4 14 10 24 14 23 20 -5 49 15 59 42 12 32 5 44 -21
34 -19 -7 -21 -25 -5 -41 8 -8 7 -13 -1 -18 -14 -9 -74 -15 -66 -7 3 3 1 11
-6 19 -8 11 -7 12 6 7 9 -3 16 -11 16 -18 0 -6 5 -3 11 7 5 9 7 22 3 29 -4 7
-3 8 4 4 7 -4 12 -3 12 3 0 14 -35 32 -46 23 -5 -4 -2 2 6 13 21 30 24 32 17
13 -6 -18 -2 -20 28 -20 36 0 46 3 40 12 -3 6 -2 10 4 10 5 0 11 -6 14 -12 3
-7 4 -3 4 9 -1 17 -6 22 -19 17 -11 -3 -18 0 -18 7 0 10 -3 10 -12 1 -7 -7
-16 -12 -21 -12 -5 0 -1 7 8 16 11 12 19 14 27 6 6 -6 17 -8 24 -5 11 4 10 8
-4 22 -10 9 -13 13 -7 9 5 -3 19 -8 30 -10 16 -2 20 3 20 22 0 15 5 24 13 22
8 -1 11 2 8 7 -3 5 -19 7 -36 6 -16 -1 -30 2 -30 7 0 6 8 7 18 4 14 -5 13 -3
-3 10 -15 13 -16 15 -3 11 9 -3 19 0 22 9 3 8 2 12 -3 9 -5 -3 -13 0 -17 6 -5
8 -3 9 6 4 10 -6 12 -4 7 7 -3 9 -1 20 5 26 6 6 12 32 12 58 1 31 6 49 15 52
10 3 12 0 8 -12 -4 -10 -1 -16 8 -16 8 0 15 -4 15 -10 0 -5 -8 -7 -17 -3 -15
5 -16 3 -6 -7 7 -8 23 -15 35 -16 13 -2 17 0 11 2 -20 9 -15 23 6 19 11 -2 26
4 33 13 12 15 11 16 -4 3 -11 -8 -18 -9 -18 -3 0 7 -7 9 -17 5 -13 -5 -15 -2
-10 16 5 19 2 22 -14 18 -24 -6 -25 8 -1 23 16 11 16 11 0 6 -11 -3 -17 0 -15
7 1 7 -4 11 -12 9 -11 -2 -12 0 -3 11 7 8 8 18 4 23 -4 4 1 2 11 -5 9 -7 17
-10 17 -5 0 5 5 2 10 -6 8 -13 10 -12 10 3 0 9 -6 17 -14 17 -8 0 -18 4 -21
10 -3 6 1 7 9 4 16 -6 24 20 9 29 -5 2 -3 2 4 1 15 -4 30 15 38 49 7 27 16 33
28 20 4 -3 1 -13 -7 -22 -14 -16 -16 -20 -16 -41 0 -6 -5 -9 -11 -8 -6 2 -14
-4 -16 -12 -3 -10 -2 -11 4 -4 4 6 18 10 30 9 17 -1 20 1 12 11 -7 8 -7 14 1
19 6 3 8 10 5 15 -3 5 -1 11 4 14 15 10 5 41 -13 38 -9 -2 -16 2 -16 8 0 8 -6
7 -21 0 -11 -7 -23 -9 -26 -7 -2 3 5 8 16 12 11 3 18 12 15 19 -3 7 2 13 11
13 9 0 14 -6 11 -13 -3 -8 -1 -16 4 -19 6 -4 10 3 10 15 0 12 4 19 8 16 5 -3
8 18 7 47 0 29 1 57 4 62 14 27 9 37 -17 31 -15 -3 -22 -3 -15 0 7 3 9 13 6
22 -3 11 -2 13 4 6 9 -13 45 -15 37 -2 -3 5 -10 6 -15 3 -5 -4 -9 -1 -9 4 0 6
5 11 11 11 5 0 7 5 4 10 -5 8 -11 7 -21 -1 -12 -10 -17 -8 -28 6 -12 16 -13
15 -14 -15 0 -19 4 -42 9 -52 7 -14 6 -20 -6 -24 -10 -4 -13 -13 -9 -26 3 -11
7 -28 8 -36 2 -9 9 -18 16 -20 7 -3 10 -1 7 4 -2 5 2 16 11 24 14 13 15 12 8
-5 -5 -11 -9 -25 -9 -31 -1 -18 -26 -10 -43 14 -14 21 -50 20 -37 -1 4 -6 1
-7 -6 -3 -7 5 -10 11 -7 14 3 3 1 11 -6 19 -8 10 -8 17 1 26 10 9 11 8 5 -8
-7 -18 -6 -19 12 -5 17 14 18 14 6 -2 -12 -15 -11 -17 6 -15 16 1 19 7 15 37
-2 19 -5 42 -5 50 0 8 -6 22 -12 30 -10 13 -9 13 7 1 16 -13 25 -2 10 13 -4 3
-8 14 -9 24 -1 9 -5 27 -7 39 -4 17 -2 20 10 16 12 -5 14 -3 8 7 -6 10 -2 12
19 8 14 -3 29 -1 32 4 3 4 2 8 -3 7 -23 -4 -35 2 -29 16 3 8 0 14 -7 12 -7 -1
-11 6 -9 17 2 12 -1 16 -9 10 -8 -4 -10 -3 -5 4 4 6 13 9 20 6 9 -3 13 1 13
13 -2 22 -19 43 -29 36 -18 -10 -6 10 18 32 21 19 23 25 10 25 -9 0 -16 4 -16
10 0 14 45 6 46 -8 1 -7 2 -16 3 -22 0 -5 6 -10 12 -10 8 0 8 5 -1 15 -10 12
-10 15 0 15 7 0 2 9 -11 19 -26 21 -27 19 26 36 13 4 13 8 3 24 -8 14 -15 17
-19 9 -4 -7 -5 -16 -3 -20 3 -4 -2 -8 -11 -8 -9 0 -14 4 -11 9 3 5 -2 12 -11
15 -15 6 -15 8 -3 16 10 6 11 10 3 10 -7 0 -10 7 -7 18 4 13 3 14 -4 4 -5 -8
-12 -13 -16 -13 -32 4 -33 -22 -3 -51 12 -10 14 -19 7 -23 -6 -3 -8 -10 -5
-15 3 -5 1 -11 -4 -15 -6 -3 -8 3 -6 15 2 11 0 22 -6 25 -9 6 -14 -9 -9 -30 1
-5 -2 -6 -6 -2 -12 11 -14 37 -3 37 5 0 9 5 9 11 0 6 -6 9 -14 6 -7 -3 -19 0
-26 6 -10 9 -12 8 -7 -5 4 -10 2 -18 -3 -18 -6 0 -10 7 -10 16 0 9 -5 12 -12
8 -8 -4 -10 -3 -5 2 5 5 13 9 19 9 6 0 13 11 15 24 3 21 2 22 -14 10 -16 -12
-17 -12 -6 2 10 12 10 18 1 27 -7 7 -9 12 -6 12 4 0 14 -7 22 -16 9 -9 16 -11
16 -4 0 6 5 8 10 5 6 -3 10 -11 10 -16 0 -6 -4 -7 -10 -4 -5 3 -11 1 -11 -4
-4 -33 -3 -41 4 -41 31 0 32 1 18 9 -12 7 -11 12 1 30 8 11 17 19 20 16 2 -3
5 2 5 10 0 11 -4 12 -14 3 -11 -8 -12 -7 -7 6 5 14 2 17 -12 15 -10 -2 -21 1
-23 6 -2 6 -12 16 -22 23 -11 7 -19 18 -19 24 0 7 6 4 13 -7 8 -10 19 -15 25
-11 7 4 10 -1 7 -14 -2 -12 0 -18 6 -14 6 3 8 9 5 12 -3 3 1 13 10 23 10 11
12 19 4 24 -6 3 -9 3 -8 -2 2 -4 0 -9 -4 -10 -11 -4 -11 -2 -3 29 4 16 11 26
15 23 4 -3 11 2 14 11 11 28 7 35 -13 24 -13 -7 -22 -7 -26 0 -3 5 2 10 12 10
14 0 15 2 5 9 -11 6 -10 11 3 25 19 19 13 21 -16 5 -12 -6 -18 -17 -15 -25 3
-8 0 -14 -6 -14 -7 0 -3 -6 7 -14 11 -8 26 -12 35 -9 12 3 11 2 -2 -6 -18 -12
-48 -5 -48 11 0 5 -6 6 -12 2 -10 -6 -10 -5 -1 7 18 23 20 53 3 54 -8 0 -18
-4 -22 -10 -5 -6 -16 -1 -30 14 -13 13 -17 21 -10 17 7 -4 12 -1 12 8 0 9 -6
16 -12 16 -9 0 -8 4 2 10 13 8 13 10 -2 10 -12 0 -15 6 -11 23 4 18 3 19 -6 7
-9 -13 -11 -12 -11 3 0 10 -5 15 -10 12 -6 -4 -7 -13 -1 -24 7 -13 6 -18 -3
-18 -8 0 -12 10 -10 28 3 20 -3 33 -18 44 -30 21 -41 19 -28 -5 9 -17 8 -19
-7 -13 -16 6 -16 5 -4 -11 14 -16 16 -16 27 -2 10 14 12 11 11 -18 -1 -19 -4
-33 -8 -30 -4 2 -10 -3 -13 -12 -9 -24 -7 -27 9 -14 13 11 18 11 28 0 9 -10 9
-11 -3 -8 -8 3 -23 -2 -33 -11 -10 -8 -18 -11 -17 -6 5 24 -1 37 -15 32 -8 -4
-17 -1 -21 5 -4 6 -3 8 3 5 6 -4 14 0 17 9 3 8 13 14 22 12 9 -2 19 3 22 11 3
9 0 11 -7 6 -13 -7 -51 29 -51 49 0 6 -5 4 -10 -4 -13 -20 -12 -33 2 -24 7 4
8 3 4 -4 -4 -7 -2 -12 5 -12 7 0 9 -3 6 -6 -4 -4 -12 -2 -20 4 -10 8 -16 6
-25 -9 -11 -17 -10 -19 10 -16 13 2 17 2 10 0 -7 -3 -10 -9 -7 -14 3 -5 0 -6
-8 -3 -10 4 -15 -1 -14 -13 1 -10 -5 -18 -13 -18 -8 0 -19 -4 -23 -10 -9 -10
-6 2 10 43 6 16 5 16 -15 -1 -20 -18 -20 -18 -17 0 1 10 8 17 14 16 13 -3 15
13 2 21 -4 3 -16 -3 -26 -14 -10 -11 -23 -20 -29 -20 -6 0 -4 5 4 10 12 8 13
12 2 19 -11 7 -10 9 3 14 9 4 13 3 10 -3 -3 -6 -1 -10 4 -10 6 0 11 5 11 10 0
6 6 10 13 9 25 -3 38 1 32 11 -4 6 -10 8 -15 5 -5 -3 -11 -1 -15 5 -3 5 -11
10 -16 10 -6 0 -7 -4 -4 -10 3 -5 1 -10 -4 -10 -6 0 -11 6 -11 13 0 6 -9 1
-20 -13 -11 -14 -20 -19 -20 -12 0 7 -4 10 -10 7 -9 -6 -14 8 -11 28 0 4 -4 7
-10 7 -6 0 -4 9 4 21 8 11 12 30 9 42 -3 12 -2 20 1 17 10 -9 16 -60 7 -60
-12 0 -8 -39 5 -43 6 -3 10 17 9 54 -1 50 2 58 17 56 9 -2 24 -8 32 -15 11
-10 17 -9 26 1 14 18 2 30 -16 16 -9 -8 -13 -8 -13 -1 0 16 16 23 34 16 9 -3
16 -17 16 -30 0 -15 6 -24 16 -24 12 0 14 3 6 13 -8 10 -6 13 11 14 15 2 18 0
9 -6 -8 -5 -13 -12 -13 -17 0 -5 -8 -9 -19 -9 -11 0 -25 -6 -32 -13 -9 -9 -9
-12 0 -12 7 0 12 -5 12 -11 0 -8 -4 -8 -14 0 -9 7 -17 8 -20 3 -7 -11 23 -27
55 -31 6 0 9 -8 6 -16 -4 -8 -2 -17 2 -20 12 -7 23 24 14 37 -3 6 -2 8 3 5 6
-3 15 3 22 14 10 16 9 19 -3 19 -8 0 -15 4 -15 10 0 5 8 6 18 3 15 -6 15 -5 3
10 -16 20 -8 23 11 4 26 -25 88 -56 93 -46 4 5 12 6 18 3 7 -4 8 -3 4 2 -5 5
-16 9 -25 9 -25 0 -67 32 -50 38 7 3 2 6 -11 6 -13 1 -22 4 -18 7 8 9 -16 33
-27 26 -5 -3 -6 0 -2 6 3 6 2 13 -4 17 -6 4 -8 11 -4 16 3 6 -5 8 -21 5 -27
-5 -27 -5 -9 15 16 18 16 19 1 13 -11 -4 -17 -1 -17 7 0 7 3 9 7 6 3 -4 12 1
19 11 18 23 17 37 -1 22 -9 -7 -19 -10 -22 -6 -4 4 -2 11 6 15 7 5 13 12 14
17 1 5 6 8 10 6 5 -1 5 2 2 8 -4 6 -14 9 -22 6 -11 -5 -13 0 -8 17 5 19 4 20
-5 5 -6 -10 -15 -18 -19 -18 -14 0 -21 29 -9 36 7 4 8 3 4 -4 -4 -7 -2 -12 3
-12 14 0 14 11 1 30 -9 13 -12 13 -20 -2 -7 -11 -18 -15 -33 -12 -12 3 -29 6
-36 8 -8 1 -17 8 -19 15 -3 10 0 10 16 2 10 -6 22 -7 26 -4 3 3 6 2 6 -4 0 -5
7 -10 15 -10 8 0 15 4 15 8 0 10 -40 24 -60 21 -13 -3 -13 -2 0 7 8 5 18 7 22
5 4 -3 8 -1 8 4 0 5 -13 15 -30 22 -16 7 -27 17 -23 23 4 6 1 7 -6 3 -14 -9
-42 24 -34 38 4 5 1 6 -6 2 -6 -4 -9 -11 -6 -16 3 -4 2 -10 -2 -13 -5 -2 -2
-2 5 -1 15 4 16 -12 2 -21 -8 -5 -8 -11 0 -20 8 -9 7 -14 -3 -18 -7 -3 -19 4
-26 14 -6 11 -17 17 -24 13 -7 -4 -9 -4 -5 1 4 4 3 14 -3 22 -9 10 -15 10 -25
2 -15 -12 -19 -39 -6 -39 4 0 8 -9 9 -20 1 -12 -4 -20 -13 -20 -8 0 -12 5 -9
10 3 6 1 10 -5 10 -6 0 -8 5 -4 12 4 7 3 8 -4 4 -7 -4 -12 -2 -12 5 0 7 -3 9
-6 6 -4 -4 -1 -14 6 -22 10 -12 10 -19 2 -27 -9 -9 -12 -8 -12 5 0 9 -4 17
-10 17 -5 0 -10 7 -10 16 0 11 -6 14 -22 8 -23 -7 -23 -7 -4 15 15 16 21 18
28 9 6 -10 8 -10 9 0 1 6 2 16 3 22 0 5 9 18 18 30 17 19 17 20 -2 20 -12 0
-23 7 -26 15 -5 11 -11 12 -25 4 -13 -6 -19 -6 -19 1 0 5 6 10 13 11 6 1 1 4
-13 8 -35 11 -49 3 -44 -22 3 -19 -1 -22 -27 -23 -24 -1 -27 1 -18 12 7 8 9
17 5 21 -3 3 -6 1 -6 -5 0 -7 -4 -11 -9 -9 -8 2 -13 -6 -10 -15 6 -24 5 -57
-2 -53 -5 4 -9 15 -9 26 0 11 -4 17 -10 14 -20 -12 -10 12 15 35 13 12 22 27
19 31 -3 5 -1 9 5 9 5 0 13 -9 16 -20 3 -11 11 -20 16 -20 6 0 7 5 4 10 -3 6
1 13 9 16 9 3 13 10 10 16 -3 5 -12 4 -20 -3 -9 -7 -14 -8 -13 -3 5 28 -2 35
-18 18 -10 -10 -18 -21 -18 -25 0 -4 -3 -11 -7 -15 -5 -4 -8 -1 -8 6 0 9 -5 7
-14 -5 -8 -11 -12 -23 -10 -27 2 -4 -6 -14 -18 -22 -21 -15 -21 -16 -3 -17 11
0 15 -3 8 -5 -7 -3 -20 -1 -29 4 -16 9 -15 10 4 16 37 12 36 86 -2 86 -16 0
-18 2 -7 9 9 6 22 6 32 1 17 -9 29 -4 29 12 0 5 -5 6 -10 3 -6 -4 -10 -3 -9 2
4 22 -2 44 -11 38 -5 -3 -7 -13 -4 -23 3 -9 -1 -6 -9 8 -9 14 -13 29 -10 33 3
5 -4 4 -16 -2 -25 -14 -28 -26 -3 -17 14 5 14 4 -2 -9 -27 -21 -36 -19 -33 8
1 13 -3 21 -10 19 -11 -2 -17 9 -15 28 0 3 -8 6 -18 6 -15 0 -16 -4 -9 -18 9
-16 22 -22 42 -19 4 0 7 -3 7 -9 0 -5 -5 -10 -11 -10 -8 0 -9 -4 0 -13 6 -8 7
-18 3 -22 -4 -5 1 -5 11 -2 11 4 16 3 12 -3 -8 -13 -35 -13 -36 0 -1 6 -3 15
-4 20 -1 6 -3 15 -4 20 0 6 -10 10 -22 10 -11 0 -18 4 -14 9 3 5 0 13 -6 16
-5 4 -8 13 -6 19 3 7 -1 13 -8 13 -8 0 -11 -7 -7 -15 4 -11 1 -13 -8 -7 -8 5
-11 3 -8 -6 3 -8 12 -13 20 -13 8 1 15 -5 15 -13 0 -11 -4 -11 -21 1 -12 8
-20 23 -19 35 2 14 -2 19 -12 15 -7 -3 -11 -13 -8 -22 4 -14 3 -15 -5 -2 -6 8
-9 17 -6 21 2 4 1 9 -3 12 -5 2 -3 2 4 1 7 -2 15 2 19 8 4 7 3 8 -4 4 -7 -4
-12 -3 -12 2 0 14 -37 3 -51 -14 -7 -8 -9 -18 -5 -21 4 -4 11 -1 16 7 7 10 10
11 10 3 0 -26 -2 -28 -18 -25 -11 2 -13 0 -6 -5 7 -5 8 -16 3 -28 -7 -19 -8
-18 -8 4 -1 14 -6 21 -13 18 -7 -2 -22 0 -33 5 -19 8 -19 8 1 4 12 -2 28 1 35
6 12 7 11 9 -1 7 -32 -3 -51 1 -45 11 4 6 11 8 16 5 5 -4 16 -2 25 3 11 6 13
11 5 16 -6 4 -11 3 -11 -2 0 -6 -6 -10 -12 -9 -34 1 -49 -4 -42 -14 4 -8 0 -8
-15 0 -11 7 -21 16 -21 22 0 6 -4 8 -9 5 -16 -11 -41 6 -41 27 0 11 3 17 8 13
4 -4 7 -13 7 -18 0 -6 7 -13 15 -15 9 -3 11 -1 5 4 -13 11 -17 33 -6 33 5 0
12 -9 16 -19 4 -13 12 -17 26 -14 25 7 33 20 18 29 -7 4 -9 3 -6 -2 3 -6 -3
-11 -14 -11 -10 -1 -19 3 -19 8 0 6 4 8 9 4 5 -3 13 0 17 6 4 8 3 9 -4 5 -7
-4 -12 -2 -12 4 0 7 -8 9 -20 5 -11 -4 -20 -2 -20 4 0 6 -8 3 -18 -6 -11 -10
-16 -22 -13 -28 2 -5 -2 -4 -11 3 -13 10 -17 10 -22 0 -3 -7 -3 -2 1 12 5 22
4 23 -10 12 -31 -26 -29 9 3 38 l32 30 -27 0 c-14 0 -24 -4 -21 -8 2 -4 -4
-13 -15 -20 -16 -10 -19 -9 -19 4 0 8 -4 13 -9 9 -5 -3 -13 -1 -16 5 -5 8 -11
7 -21 -1 -8 -6 -14 -8 -14 -5 0 4 -10 2 -22 -5 -16 -7 -14 -3 7 14 27 23 32
24 47 11 10 -10 18 -11 22 -5 3 5 -1 11 -11 13 -15 3 -15 4 1 21 10 9 12 17 6
17 -6 0 -14 -8 -17 -17 -6 -15 -7 -15 -14 3 -7 17 -8 17 -8 1 -1 -12 -5 -16
-13 -10 -20 12 -39 12 -31 0 4 -6 0 -8 -10 -4 -10 3 -17 2 -17 -4 0 -6 -4 -8
-9 -4 -5 3 -13 0 -17 -6 -5 -8 -3 -9 6 -4 9 6 11 4 5 -6 -7 -12 -6 -12 7 -1
11 9 18 10 23 2 7 -11 -42 -33 -59 -26 -6 2 -3 5 7 5 10 1 15 6 12 11 -4 6
-12 7 -18 4 -9 -5 -9 -4 0 6 15 16 6 40 -13 33 -8 -3 -11 -10 -7 -16 3 -6 1
-7 -5 -3 -7 4 -12 14 -12 22 0 8 4 13 9 9 6 -3 9 4 8 15 -1 20 -2 20 -19 -2
-10 -13 -16 -29 -13 -36 3 -7 -2 -15 -10 -19 -10 -3 -14 -13 -10 -27 2 -11 2
-16 -1 -9 -4 8 -11 6 -25 -8 -11 -11 -25 -17 -31 -13 -6 4 -9 1 -6 -7 6 -19
30 -18 46 1 12 13 12 13 6 0 -18 -36 -26 -41 -44 -25 -11 10 -20 12 -24 6 -4
-5 2 -14 11 -20 10 -6 13 -11 8 -11 -6 0 -17 6 -24 13 -11 10 -13 9 -8 -6 4
-11 3 -16 -3 -12 -6 3 -10 1 -10 -5 0 -7 -6 -10 -14 -7 -8 3 -17 1 -20 -6 -2
-7 -4 0 -3 14 1 14 6 26 13 26 7 0 10 -7 6 -15 -3 -10 -1 -13 6 -8 7 4 12 13
12 21 0 7 7 15 15 19 8 3 15 10 15 16 0 6 -6 8 -12 4 -7 -4 -9 -3 -5 2 4 4 20
9 35 10 14 0 28 7 30 14 3 7 14 22 25 33 l20 20 -24 -6 -24 -6 25 19 c14 10
22 22 18 26 -4 3 -14 0 -22 -7 -42 -38 -46 -40 -65 -29 -27 14 -31 13 -25 -7
5 -14 4 -15 -4 -4 -7 9 -12 10 -16 2 -10 -15 -22 -6 -40 30 -11 22 -12 28 -2
20 7 -6 15 -8 19 -5 3 3 3 -5 0 -18 -4 -18 -3 -20 6 -8 7 11 11 11 11 2 0 -9
8 -7 27 5 15 10 24 12 20 6 -5 -7 -4 -13 2 -13 5 0 12 4 16 10 3 5 13 6 22 3
11 -4 14 -3 9 6 -4 6 -4 11 1 9 4 -1 28 7 53 18 25 12 59 25 75 31 17 6 39 14
49 18 13 6 17 5 13 -2 -8 -13 18 -11 30 1 4 4 1 6 -7 4 -8 -1 -14 2 -13 8 1 7
-6 10 -16 7 -12 -3 -20 2 -24 16 -3 13 0 21 7 21 7 0 20 6 31 13 17 13 17 14
-1 12 -11 0 -25 -4 -32 -9 -7 -4 -20 -2 -30 6 -15 11 -16 11 -4 -3z m-3 -61
c5 4 5 1 1 -6 -6 -10 -11 -10 -22 -1 -11 9 -15 8 -20 -5 -3 -9 -10 -13 -15
-10 -5 3 -9 1 -9 -4 0 -6 -11 -9 -25 -8 -28 1 -33 11 -10 20 8 3 15 1 15 -5 0
-6 12 -2 27 9 18 13 32 17 39 11 6 -5 15 -5 19 -1z m-235 -58 c8 -5 11 -10 5
-10 -5 0 -17 5 -25 10 -8 5 -10 10 -5 10 6 0 17 -5 25 -10z m30 -20 c0 -5 -5
-10 -11 -10 -5 0 -7 5 -4 10 3 6 8 10 11 10 2 0 4 -4 4 -10z m-90 -4 c0 -3 -4
-8 -10 -11 -5 -3 -10 -1 -10 4 0 6 5 11 10 11 6 0 10 -2 10 -4z m352 -48 c-7
-7 -12 -8 -12 -2 0 14 12 26 19 19 2 -3 -1 -11 -7 -17z m-218 -19 c-8 -14 -21
-11 -21 5 0 8 6 12 14 9 7 -3 10 -9 7 -14z m-44 -20 c0 -5 -8 -9 -17 -8 -11 0
-13 3 -5 6 6 2 9 10 6 15 -4 7 -2 8 4 4 7 -4 12 -11 12 -17z m-60 1 c0 -5 -5
-10 -11 -10 -5 0 -7 5 -4 10 3 6 8 10 11 10 2 0 4 -4 4 -10z m181 -23 c-10 -9
-11 -8 -5 6 3 10 9 15 12 12 3 -3 0 -11 -7 -18z m39 12 c0 -5 5 -7 12 -3 7 4
8 3 4 -5 -6 -9 -11 -9 -22 0 -17 14 -18 19 -4 19 6 0 10 -5 10 -11z m161 -12
c-10 -9 -11 -8 -5 6 3 10 9 15 12 12 3 -3 0 -11 -7 -18z m-690 0 c-6 -8 -8
-16 -5 -20 3 -3 -2 -4 -13 -3 -10 2 -16 7 -13 12 3 5 8 8 13 7 4 -2 7 2 7 7 0
6 5 10 11 10 8 0 9 -4 0 -13z m329 3 c0 -5 -5 -10 -11 -10 -5 0 -7 5 -4 10 3
6 8 10 11 10 2 0 4 -4 4 -10z m283 -4 c4 -11 1 -13 -10 -9 -12 5 -14 3 -8 -7
5 -8 4 -11 -3 -6 -6 3 -13 2 -17 -4 -3 -5 -11 -10 -16 -10 -6 0 2 11 17 25 32
29 30 29 37 11z m-263 -16 c0 -5 -5 -10 -11 -10 -5 0 -7 5 -4 10 3 6 8 10 11
10 2 0 4 -4 4 -10z m157 -4 c0 -8 -8 -11 -21 -8 -19 5 -19 6 0 13 10 4 19 8
20 8 0 1 1 -5 1 -13z m147 -2 c3 -8 2 -12 -3 -9 -5 3 -12 1 -16 -5 -8 -13 -25
-13 -25 0 0 6 6 9 13 8 6 -2 11 3 10 10 -4 17 14 15 21 -4z m-431 -9 c-3 -9
-8 -14 -10 -11 -3 3 -2 9 2 15 9 16 15 13 8 -4z m257 -20 c-7 -8 -16 -12 -21
-9 -5 3 -9 0 -9 -5 0 -6 -5 -11 -11 -11 -8 0 -8 5 1 15 7 8 16 13 20 10 5 -3
11 -1 15 5 3 5 9 10 12 10 3 0 0 -7 -7 -15z m203 -2 c-5 -15 -4 -16 8 -7 16
13 52 3 65 -17 4 -7 3 -10 -4 -5 -6 3 -13 2 -16 -3 -4 -5 2 -8 11 -6 10 2 18
4 18 5 0 1 8 3 18 5 9 2 15 0 12 -5 -3 -5 0 -10 7 -12 6 -2 13 -14 15 -27 2
-13 -1 -20 -7 -16 -5 3 -10 -2 -11 -12 0 -14 -3 -12 -11 7 -6 14 -10 28 -10
33 3 11 -16 9 -23 -3 -4 -6 -11 -7 -17 -4 -7 5 -9 1 -5 -9 9 -23 4 -21 -19 5
-17 19 -17 21 -1 15 9 -4 17 -2 17 3 0 17 -21 22 -38 9 -9 -7 -14 -10 -10 -5
4 5 3 17 -3 28 -5 10 -7 23 -4 28 10 16 15 11 8 -7z m-498 -2 c3 -5 2 -12 -3
-15 -5 -3 -9 1 -9 9 0 17 3 19 12 6z m90 -9 c-3 -3 -11 0 -18 7 -9 10 -8 11 6
5 10 -3 15 -9 12 -12z m271 -1 c2 -7 0 -7 -3 -1 -3 8 -9 7 -19 -1 -11 -9 -14
-9 -14 0 0 7 -5 9 -12 5 -6 -4 -8 -3 -5 3 8 13 50 9 53 -6z m124 -18 c0 -6 -8
-9 -20 -6 -11 3 -20 9 -20 14 0 5 7 6 15 3 11 -5 14 -1 9 12 -5 16 -4 16 5 4
6 -8 11 -20 11 -27z m-680 13 c0 -3 -4 -8 -10 -11 -5 -3 -10 -1 -10 4 0 6 5
11 10 11 6 0 10 -2 10 -4z m576 -28 c3 -4 -1 -5 -10 -4 -8 1 -18 5 -22 8 -3 4
1 5 10 4 8 -1 18 -5 22 -8z m-44 -13 c3 0 9 -3 13 -7 4 -3 0 -5 -9 -4 -9 1
-22 8 -29 16 -10 10 -9 11 3 4 8 -5 18 -9 22 -9z m104 -17 c-9 -12 -16 -19
-16 -15 0 11 24 47 28 42 2 -2 -3 -14 -12 -27z m226 4 c-4 -11 -1 -13 7 -7 8
4 6 -4 -4 -19 -10 -14 -18 -26 -19 -26 -1 0 -2 15 -3 33 0 21 4 34 12 34 8 0
11 -7 7 -15z m-165 -7 c0 -8 -4 -15 -9 -15 -10 0 -11 14 -1 23 9 10 10 9 10
-8z m358 3 c5 4 5 -1 2 -10 -3 -10 -1 -20 5 -24 7 -5 8 -2 3 6 -6 10 -4 11 11
5 10 -4 27 -8 37 -9 17 -2 36 -22 37 -37 0 -4 -7 -9 -15 -13 -11 -4 -14 0 -11
17 3 18 -1 22 -22 24 -27 1 -27 1 -4 -11 12 -7 20 -15 16 -18 -7 -7 -62 28
-80 51 -9 11 -12 12 -19 1 -5 -9 -4 -11 3 -6 7 4 12 2 12 -3 0 -6 -7 -11 -15
-11 -18 0 -20 21 -3 38 7 7 16 8 23 2 7 -5 16 -6 20 -2z m-1151 -6 c3 -5 -1
-9 -9 -9 -8 0 -12 4 -9 9 3 4 7 8 9 8 2 0 6 -4 9 -8z m598 -1 c8 12 9 12 6 0
-5 -17 -35 -23 -45 -9 -3 7 -1 8 5 4 7 -4 12 -1 13 6 0 10 2 10 6 -1 5 -11 7
-11 15 0z m75 -20 c0 -11 -5 -18 -9 -15 -4 3 -5 11 -1 19 7 21 12 19 10 -4z
m209 7 c4 -6 3 -8 -4 -4 -6 3 -13 2 -17 -4 -10 -16 -45 -32 -45 -20 0 5 6 10
14 10 7 0 19 7 26 15 15 18 17 18 26 3z m118 4 c3 -5 -1 -9 -9 -9 -8 0 -12 4
-9 9 3 4 7 8 9 8 2 0 6 -4 9 -8z m42 -24 c15 -19 16 -20 2 -9 -15 11 -21 11
-33 1 -18 -15 -20 -5 -2 15 6 8 12 14 13 15 0 0 9 -10 20 -22z m-486 -8 c0 -5
-5 -10 -11 -10 -5 0 -7 5 -4 10 3 6 8 10 11 10 2 0 4 -4 4 -10z m35 0 c3 -5 1
-10 -4 -10 -6 0 -11 5 -11 10 0 6 2 10 4 10 3 0 8 -4 11 -10z m301 -14 c1 -7
-4 -13 -12 -13 -9 0 -11 4 -4 12 5 7 8 15 5 18 -3 4 -2 5 2 2 4 -3 8 -11 9
-19z m444 10 c0 -8 -7 -17 -17 -20 -14 -6 -14 -9 5 -27 25 -23 28 -42 8 -58
-10 -8 -16 -9 -21 -1 -4 6 -1 9 6 8 7 -2 14 6 16 17 4 17 2 18 -7 5 -10 -13
-11 -13 -7 1 4 12 0 15 -19 11 -28 -5 -35 22 -8 32 9 3 14 13 11 20 -5 13 5
23 26 25 4 1 7 -5 7 -13z m-253 -11 c0 -8 -9 -23 -20 -32 -11 -10 -18 -13 -14
-7 8 14 -50 13 -73 -1 -13 -8 -13 -7 -1 8 8 10 16 15 19 13 2 -3 11 2 19 10
11 10 19 12 28 4 9 -7 16 -6 25 5 15 19 17 19 17 0z m-290 -10 c0 -8 -4 -12
-9 -9 -4 3 -8 9 -8 15 0 5 4 9 8 9 5 0 9 -7 9 -15z m372 2 c8 -10 7 -14 -4
-14 -8 0 -12 4 -9 9 3 4 0 8 -5 8 -6 0 -11 -5 -11 -12 0 -6 -3 -9 -6 -5 -7 7
4 27 15 27 5 0 14 -6 20 -13z m-69 -28 c-12 -9 -10 -10 9 -5 13 2 20 1 15 -3
-5 -5 -21 -11 -37 -15 -26 -6 -27 -6 -10 14 10 11 22 20 28 20 5 0 3 -5 -5
-11z m138 -30 c2 -8 -2 -6 -8 4 -6 9 -15 15 -21 12 -5 -4 -9 -2 -9 4 0 6 -8 8
-17 5 -15 -5 -16 -4 -3 5 17 12 51 -6 58 -30z m27 32 c3 -5 0 -13 -6 -17 -7
-4 -9 -3 -5 4 3 5 0 13 -6 15 -9 4 -10 6 -1 6 6 1 14 -3 18 -8z m-305 -11 c0
-5 -2 -10 -4 -10 -3 0 -8 5 -11 10 -3 6 -1 10 4 10 6 0 11 -4 11 -10z m-45 -9
c3 -5 2 -12 -3 -15 -5 -3 -9 1 -9 9 0 17 3 19 12 6z m75 -27 c0 -10 5 -12 13
-8 9 6 9 5 0 -8 -7 -8 -9 -19 -5 -23 4 -5 1 -5 -6 -1 -7 5 -11 10 -8 13 2 3 1
16 -5 30 -6 16 -6 22 1 18 6 -3 10 -13 10 -21z m-33 10 c-3 -3 -12 -4 -19 -1
-8 3 -5 6 6 6 11 1 17 -2 13 -5z m90 -7 c0 -8 -6 -14 -14 -14 -17 0 -17 14 0
20 6 3 12 6 13 6 0 1 1 -5 1 -12z m108 2 c11 -16 1 -19 -13 -3 -7 8 -8 14 -3
14 5 0 13 -5 16 -11z m127 3 c3 8 6 7 10 -4 5 -11 0 -15 -15 -14 -11 1 -23 8
-25 16 -4 13 -3 13 10 2 13 -10 17 -10 20 0z m228 -32 c0 -13 -1 -13 -10 0 -5
8 -10 22 -10 30 0 13 1 13 10 0 5 -8 10 -22 10 -30z m-736 22 c3 -5 -1 -9 -9
-9 -8 0 -12 4 -9 9 3 4 7 8 9 8 2 0 6 -4 9 -8z m111 -2 c-3 -5 -12 -10 -18
-10 -7 0 -6 4 3 10 19 12 23 12 15 0z m65 -15 c-7 -9 -15 -13 -18 -10 -3 3
-11 0 -17 -5 -9 -7 -14 -6 -18 3 -4 10 2 13 19 11 13 -1 26 2 30 7 3 5 8 9 11
9 3 0 0 -7 -7 -15z m263 2 c7 4 6 -1 -2 -10 -7 -9 -20 -17 -28 -17 -8 0 -12
-4 -8 -10 3 -5 13 -7 23 -4 13 5 14 4 3 -4 -7 -5 -18 -16 -23 -23 -8 -11 -9
-10 -4 3 3 10 1 20 -4 23 -6 4 -10 0 -10 -7 0 -10 -2 -10 -9 1 -5 8 -7 21 -4
28 4 11 8 12 13 2 6 -8 12 -6 21 10 8 11 15 17 17 11 2 -6 9 -7 15 -3z m358
-4 c11 -15 11 -16 -1 -5 -18 16 -38 16 -22 0 17 -17 15 -38 -3 -38 -8 0 -14
-5 -12 -11 1 -6 -4 -14 -12 -17 -9 -3 -11 0 -7 7 5 7 2 10 -6 9 -7 -2 -12 3
-10 10 1 8 -2 11 -7 7 -6 -3 -15 3 -20 14 -11 20 1 24 25 9 6 -4 18 2 27 13
21 24 31 24 48 2z m-1100 -16 c-10 -9 -11 -8 -5 6 3 10 9 15 12 12 3 -3 0 -11
-7 -18z m803 1 c-3 -4 -11 -5 -19 -1 -21 7 -19 12 4 10 11 0 18 -5 15 -9z
m-209 -17 c-3 -6 -11 -11 -16 -11 -5 0 -4 6 3 14 14 16 24 13 13 -3z m72 -27
c2 -14 0 -13 -7 4 -5 13 -14 21 -19 18 -5 -3 -12 1 -15 10 -6 15 -4 15 16 2
13 -9 24 -24 25 -34z m106 29 c-5 -2 -8 -14 -6 -27 3 -14 -1 -27 -9 -31 -7 -5
-10 -5 -6 0 4 4 0 14 -10 22 -16 14 -16 14 1 9 14 -4 16 -1 13 19 -4 19 -1 22
12 18 9 -4 11 -8 5 -10z m62 8 c-3 -5 3 -11 12 -13 16 -3 15 -5 -2 -9 -16 -5
-21 -1 -22 12 -1 11 3 19 8 19 6 0 8 -4 4 -9z m136 2 c-10 -4 -3 -11 20 -22
19 -9 34 -22 34 -29 0 -8 8 -20 19 -27 18 -13 18 -14 -2 -12 -11 0 -18 5 -16
9 3 4 0 8 -5 8 -6 0 -11 9 -11 20 0 11 -5 20 -11 20 -5 0 -8 -4 -4 -9 3 -6 -3
-9 -14 -8 -14 1 -17 5 -10 13 6 8 5 14 -6 18 -21 8 -19 26 3 25 13 0 13 -2 3
-6z m-1676 -23 c-3 -5 -12 -10 -18 -10 -7 0 -6 4 3 10 19 12 23 12 15 0z
m1641 -32 c-5 -3 -16 -3 -25 0 -9 3 -11 7 -4 9 7 3 9 12 6 20 -5 13 -2 12 13
-3 12 -11 16 -22 10 -26z m-569 17 c0 -8 -4 -12 -9 -9 -5 3 -6 10 -3 15 9 13
12 11 12 -6z m519 6 c-3 -5 3 -20 15 -32 11 -13 18 -19 16 -14 -3 6 5 10 18
10 16 0 21 -4 17 -15 -5 -13 -3 -13 11 -2 22 19 40 7 27 -19 -6 -10 -15 -19
-21 -19 -6 0 -7 5 -4 10 3 6 2 10 -4 10 -13 0 -10 -43 4 -52 20 -14 29 -8 9 7
-18 14 -17 14 11 12 17 -2 39 -8 49 -14 10 -6 28 -9 40 -6 20 3 20 3 1 -6 -11
-5 -17 -10 -12 -10 4 -1 9 0 10 2 2 1 11 -4 20 -11 13 -11 14 -17 4 -33 -6
-10 -19 -19 -27 -19 -11 -1 -10 -4 5 -16 20 -16 20 -16 -2 -10 -12 4 -24 3
-27 -3 -9 -13 -39 -7 -44 10 -2 9 0 10 5 4 12 -15 35 -13 41 4 3 9 0 12 -10 8
-10 -3 -15 0 -14 10 0 9 -5 18 -12 20 -8 3 -10 -1 -5 -14 3 -10 4 -16 2 -13
-2 3 -13 15 -23 27 -18 22 -18 22 4 18 13 -2 34 -15 48 -27 19 -18 24 -19 19
-6 -3 10 -1 20 5 24 11 7 -8 24 -27 24 -5 0 -3 -5 5 -10 17 -11 10 -13 -14 -4
-8 3 -12 12 -9 20 3 8 0 14 -7 14 -6 0 -8 -5 -4 -12 5 -8 -2 -9 -25 -5 -18 4
-30 3 -27 -1 2 -4 -4 -8 -14 -8 -10 0 -17 3 -15 7 9 13 13 79 5 74 -15 -9 -38
6 -44 28 -5 20 -6 20 -24 4 -10 -9 -22 -14 -25 -10 -4 3 -7 1 -7 -5 0 -7 8
-12 19 -12 16 0 35 -31 32 -52 -2 -14 11 -8 30 15 l20 22 -15 -26 c-9 -14 -14
-28 -10 -31 3 -3 0 -9 -7 -14 -7 -4 -10 -3 -6 3 4 6 0 14 -9 17 -9 4 -14 9
-11 12 11 11 -31 46 -45 38 -7 -4 -10 -4 -6 1 4 4 0 14 -10 21 -19 15 -36 18
-28 6 3 -5 -2 -9 -10 -9 -10 0 -8 7 8 25 13 14 17 22 11 18 -7 -4 -13 -2 -13
3 0 6 7 11 16 11 11 0 15 -6 11 -20 -5 -20 3 -21 52 -11 2 1 -3 9 -10 19 -13
15 -12 16 2 4 14 -10 18 -10 23 3 3 8 8 15 11 15 4 0 4 -4 1 -9z m-356 -11 c0
-5 -4 -10 -10 -10 -5 0 -10 5 -10 10 0 6 5 10 10 10 6 0 10 -4 10 -10z m777
-50 c-17 -14 -19 -21 -10 -32 8 -9 9 -19 3 -28 -8 -12 -10 -12 -10 4 0 17 -1
17 -17 -3 -20 -24 -48 -16 -33 9 8 12 10 11 10 -4 0 -16 3 -17 12 -8 10 10 8
16 -5 29 -20 20 -26 16 -29 -20 -1 -14 -6 -23 -10 -21 -5 3 -6 10 -3 15 4 5 1
9 -5 9 -7 0 -10 -6 -7 -14 3 -8 1 -17 -6 -19 -7 -3 10 -4 36 -3 37 2 47 -1 43
-11 -3 -8 1 -16 9 -19 8 -4 12 -11 8 -18 -3 -6 -1 -6 8 2 23 21 33 13 13 -10
-10 -13 -12 -17 -4 -10 19 16 27 15 27 -3 0 -15 -62 -33 -74 -21 -4 3 1 6 10
6 21 0 22 19 2 26 -8 4 -12 11 -8 18 4 6 -1 5 -11 -3 -15 -13 -19 -13 -26 -1
-5 8 -6 18 -4 22 3 4 0 8 -5 8 -6 0 -11 -6 -11 -12 0 -7 -5 -5 -11 5 -6 9 -15
15 -20 11 -6 -4 -4 -13 7 -25 14 -16 15 -19 2 -19 -8 0 -27 14 -41 31 -14 17
-29 30 -33 29 -5 -1 -10 4 -12 12 -2 9 0 8 7 -2 6 -8 11 -11 11 -6 0 5 6 3 14
-3 12 -10 17 -8 26 10 11 19 10 21 -4 16 -9 -4 -16 -5 -16 -3 0 3 -3 13 -7 23
-6 16 -5 17 11 4 15 -13 19 -13 27 0 5 8 7 19 4 26 -2 7 0 15 6 18 5 4 8 1 7
-6 -3 -15 38 -19 65 -7 9 5 17 16 17 24 0 9 -5 12 -12 8 -7 -4 -8 -3 -4 4 5 8
16 7 41 -5 l34 -16 -22 -17z m-687 36 c0 -2 -8 -10 -17 -17 -16 -13 -17 -12
-4 4 13 16 21 21 21 13z m36 -8 c4 -7 3 -8 -4 -4 -7 4 -12 2 -12 -5 0 -7 -3
-10 -6 -6 -6 5 3 27 11 27 2 0 7 -5 11 -12z m54 -3 c0 -2 -9 -3 -19 -2 -11 0
-18 5 -15 9 4 6 34 0 34 -7z m25 -15 c-3 -5 -12 -10 -18 -10 -7 0 -6 4 3 10
19 12 23 12 15 0z m361 -37 c-3 -4 -6 -1 -6 6 0 7 -4 10 -8 7 -4 -2 -9 5 -9
16 -2 21 -2 21 14 -1 8 -12 12 -25 9 -28z m-45 8 c3 -1 6 -7 6 -15 0 -17 -29
-14 -35 4 -4 10 -6 10 -13 -1 -4 -7 -11 -10 -16 -6 -10 11 15 26 36 22 9 -2
19 -4 22 -4z m-358 -15 c4 -10 1 -13 -8 -9 -8 3 -12 9 -9 14 7 12 11 11 17 -5z
m-1612 -29 c-10 -9 -11 -8 -5 6 3 10 9 15 12 12 3 -3 0 -11 -7 -18z m2269 -7
c10 -18 9 -19 -15 -8 -25 11 -30 19 -19 31 9 9 22 0 34 -23z m-586 2 c3 -5 -1
-9 -9 -9 -8 0 -12 4 -9 9 3 4 7 8 9 8 2 0 6 -4 9 -8z m86 4 c0 -2 -7 -7 -16
-10 -8 -3 -12 -2 -9 4 6 10 25 14 25 6z m470 -26 c8 -5 11 -10 5 -10 -5 0 -17
5 -25 10 -8 5 -10 10 -5 10 6 0 17 -5 25 -10z m-373 -16 c-8 -9 -47 -13 -51
-6 -2 4 9 8 25 8 17 1 28 0 26 -2z m37 -35 c-3 -5 -10 -6 -16 -3 -6 4 -14 1
-18 -6 -5 -9 -9 -9 -14 -1 -4 6 -2 11 4 11 6 0 8 4 5 10 -4 6 1 7 11 3 13 -5
15 -3 9 8 -8 12 -6 12 8 0 9 -7 14 -17 11 -22z m129 4 c-4 -11 -3 -14 5 -9 7
4 12 2 12 -3 0 -6 -4 -11 -9 -11 -14 0 -23 18 -16 30 10 16 15 12 8 -7z m303
-20 c-3 -4 -6 -1 -6 6 0 7 -4 9 -10 6 -6 -4 -7 1 -3 11 6 15 7 15 15 -1 6 -9
7 -19 4 -22z m-171 7 c6 5 16 5 25 -2 13 -8 12 -9 -2 -5 -9 3 -19 1 -21 -6 -3
-9 -7 -9 -17 0 -7 6 -20 9 -29 6 -14 -4 -14 -3 -1 6 9 6 18 7 24 1 6 -6 14 -6
21 0z m123 -16 c0 -26 19 -47 34 -38 16 10 8 -9 -9 -22 -21 -16 -52 -18 -54
-4 -1 6 -2 15 -3 22 0 6 -8 13 -16 15 -13 4 -13 3 0 -6 9 -7 10 -11 3 -11 -25
0 -22 19 4 33 16 7 27 19 26 25 -2 7 1 12 6 12 5 0 9 -12 9 -26z m-215 -28
c-4 -5 1 -7 10 -3 11 4 20 -1 27 -16 10 -19 9 -20 -2 -5 -19 22 -52 5 -43 -23
4 -11 2 -19 -4 -19 -6 0 -11 10 -11 23 0 16 -3 18 -9 9 -7 -11 -9 -11 -14 2
-3 8 -1 19 5 22 7 4 14 2 16 -4 2 -7 8 -9 13 -6 6 4 6 11 -1 19 -7 8 -9 19 -5
26 6 8 10 8 16 -2 4 -7 5 -17 2 -23z m31 27 c3 -4 12 -8 19 -9 32 -5 43 -10
54 -24 6 -8 10 -17 8 -20 -2 -3 6 -12 17 -19 18 -11 20 -11 15 3 -4 9 -2 16 4
16 18 0 5 -33 -14 -36 -9 -1 -15 1 -12 6 3 4 -2 11 -11 14 -8 3 -13 10 -9 15
3 5 0 13 -6 17 -13 8 -30 -16 -22 -30 3 -5 1 -6 -5 -2 -9 5 -9 13 -1 28 9 17
9 20 -3 16 -8 -3 -25 3 -39 13 -13 10 -19 19 -13 19 6 0 14 -3 18 -7z m-80
-18 c-7 -16 -24 -21 -24 -6 0 8 7 13 27 20 1 1 0 -6 -3 -14z m-2075 -8 c13 4
13 3 2 -5 -16 -12 -53 -4 -45 10 4 6 10 6 16 0 6 -6 18 -8 27 -5z m-59 -17 c0
-6 8 -10 17 -8 20 3 28 -38 10 -49 -6 -3 -7 -1 -3 5 4 7 -3 16 -17 23 -22 10
-34 39 -15 39 4 0 8 -5 8 -10z m2100 0 c0 -5 -2 -10 -4 -10 -3 0 -8 5 -11 10
-3 6 -1 10 4 10 6 0 11 -4 11 -10z m125 -38 c-8 -2 -13 -8 -10 -13 4 -5 19 -2
36 6 17 9 30 11 30 5 1 -5 3 -14 4 -20 1 -5 3 -13 4 -17 1 -5 6 -1 11 7 9 13
11 13 20 0 10 -17 -7 -51 -31 -58 -8 -3 -4 5 9 17 25 25 28 36 8 28 -16 -6
-40 16 -29 26 3 4 -1 7 -10 7 -12 0 -16 -7 -13 -22 2 -13 9 -22 15 -20 6 1 11
-2 11 -8 0 -5 -5 -10 -11 -10 -5 0 -7 -4 -4 -10 3 -6 -1 -7 -10 -3 -13 4 -14
8 -4 14 17 10 -26 28 -54 23 -10 -1 -15 1 -12 7 4 5 11 7 16 4 5 -4 9 1 9 10
0 10 -5 13 -12 9 -6 -4 -8 -3 -4 4 3 6 2 13 -4 17 -21 13 1 23 25 12 17 -8 20
-13 10 -15z m-211 0 c2 -4 -5 -9 -17 -9 -17 -2 -19 0 -7 7 18 12 18 12 24 2z
m477 -79 c8 -9 9 -14 2 -10 -6 4 -13 1 -16 -5 -2 -8 -8 -9 -13 -4 -5 5 -3 11
5 14 11 4 11 6 0 13 -8 5 -9 9 -3 9 6 0 18 -8 25 -17z m-393 -28 c-3 -3 -9 2
-12 12 -6 14 -5 15 5 6 7 -7 10 -15 7 -18z m39 -20 c0 -8 -4 -12 -9 -9 -5 3
-6 10 -3 15 9 13 12 11 12 -6z m123 -35 c0 -5 -2 -10 -4 -10 -3 0 -8 5 -11 10
-3 6 -1 10 4 10 6 0 11 -4 11 -10z m-40 -20 c0 -5 -2 -10 -4 -10 -3 0 -8 5
-11 10 -3 6 -1 10 4 10 6 0 11 -4 11 -10z m421 -17 c13 -16 12 -17 -3 -4 -10
7 -18 15 -18 17 0 8 8 3 21 -13z m-231 3 c0 -2 -7 -7 -16 -10 -8 -3 -12 -2 -9
4 6 10 25 14 25 6z m119 -15 c10 -6 5 -12 -18 -24 -17 -8 -31 -11 -31 -6 0 5
5 9 10 9 6 0 10 7 10 15 0 17 9 19 29 6z m115 -17 c14 -5 14 -8 0 -29 -11 -16
-12 -25 -4 -30 6 -4 9 -14 6 -22 -5 -11 -1 -13 17 -8 12 3 17 3 11 -2 -20 -16
-24 -43 -6 -44 12 0 10 -4 -8 -11 -14 -6 -27 -12 -30 -12 -3 -1 -11 -5 -17 -9
-9 -6 -11 -3 -7 7 3 9 15 16 26 16 11 0 16 5 13 10 -4 6 -15 8 -26 5 -10 -4
-19 -2 -19 3 0 6 11 9 25 7 16 -1 24 2 22 9 -2 6 -14 10 -26 9 -13 -2 -20 1
-16 7 3 6 13 10 21 10 18 0 18 5 -3 37 -10 15 -13 24 -6 20 6 -4 15 -2 19 4 3
6 0 15 -7 20 -16 10 -8 12 15 3z m-67 -14 c15 12 16 12 6 0 -19 -21 -16 -35 4
-19 15 13 15 11 -1 -13 -16 -25 -16 -27 1 -31 10 -3 7 -4 -9 -4 -22 1 -25 4
-17 18 6 12 4 21 -6 29 -12 10 -15 9 -16 -6 0 -14 -2 -15 -6 -4 -3 8 -11 19
-17 23 -7 6 -4 7 7 3 10 -3 17 0 17 7 0 8 3 7 9 -2 8 -13 12 -13 28 -1z m-157
-3 c0 -2 -10 -12 -22 -23 l-23 -19 19 23 c18 21 26 27 26 19z m268 -27 c7 -11
8 -20 3 -20 -5 0 -12 7 -15 16 -3 8 -11 12 -17 8 -8 -4 -9 -3 -5 4 10 17 19
15 34 -8z m-75 -14 c4 -10 1 -13 -8 -9 -8 3 -12 9 -9 14 7 12 11 11 17 -5z
m-76 -28 c-3 -8 -6 -5 -6 6 -1 11 2 17 5 13 3 -3 4 -12 1 -19z m181 3 c11 -7
10 -9 -3 -14 -9 -4 -14 -3 -10 2 3 5 -1 12 -7 14 -7 3 -8 6 -3 6 6 0 16 -3 23
-8z m50 -29 c2 -7 -1 -12 -8 -12 -6 0 -8 5 -5 10 3 6 2 10 -3 10 -6 0 -13 -7
-16 -16 -3 -8 -11 -12 -17 -8 -9 5 -6 11 7 21 20 15 36 13 42 -5z m-858 2 c0
-8 -19 -13 -24 -6 -3 5 1 9 9 9 8 0 15 -2 15 -3z m672 -1 c-10 -4 -9 -10 5
-26 10 -11 13 -17 7 -14 -7 4 -14 0 -18 -8 -3 -8 0 -15 6 -15 6 0 9 -3 5 -6
-13 -13 -27 7 -17 26 7 13 7 21 0 25 -13 8 -3 25 13 24 8 0 8 -2 -1 -6z m-95
-40 c-14 -14 -19 -15 -29 -4 -11 10 -10 11 3 6 10 -4 20 -2 24 4 3 6 9 11 13
11 3 0 -1 -8 -11 -17z m210 -5 c-3 -8 -6 -5 -6 6 -1 11 2 17 5 13 3 -3 4 -12
1 -19z m60 7 c0 -8 -4 -12 -9 -9 -4 3 -8 9 -8 15 0 5 4 9 8 9 5 0 9 -7 9 -15z
m-1357 -5 c0 -5 -5 -10 -11 -10 -5 0 -7 5 -4 10 3 6 8 10 11 10 2 0 4 -4 4
-10z m1160 6 c0 -2 -7 -7 -16 -10 -8 -3 -12 -2 -9 4 6 10 25 14 25 6z m-2810
-34 c-7 -3 -7 -9 1 -18 16 -20 3 -30 -15 -12 -11 12 -12 18 -3 27 8 8 8 11 -1
11 -7 0 -12 5 -12 10 0 6 8 5 20 -2 11 -7 15 -15 10 -16z m47 1 c0 -9 -4 -10
-14 -2 -7 6 -13 12 -13 14 0 1 6 2 13 2 8 0 14 -6 14 -14z m2883 5 c0 -5 5 -6
11 -2 7 4 1 -7 -12 -25 -27 -37 -38 -42 -15 -6 18 27 7 35 -14 10 -15 -18 -30
-11 -29 13 0 14 2 13 9 -3 5 -11 9 -17 11 -12 1 4 3 12 4 17 1 6 3 12 4 13 3
8 31 3 31 -5z m-285 -17 c3 -5 2 -12 -3 -15 -5 -3 -9 1 -9 9 0 17 3 19 12 6z
m128 -11 c3 -11 1 -18 -4 -14 -5 3 -9 12 -9 20 0 20 7 17 13 -6z m-2739 -6 c3
-8 2 -12 -4 -9 -6 3 -10 10 -10 16 0 14 7 11 14 -7z m2821 -2 c-3 -3 -11 0
-18 7 -9 10 -8 11 6 5 10 -3 15 -9 12 -12z m76 -29 c-12 -20 -14 -14 -5 12 4
9 9 14 11 11 3 -2 0 -13 -6 -23z m-1446 -1 c-3 -3 -11 0 -18 7 -9 10 -8 11 6
5 10 -3 15 -9 12 -12z m1320 8 c3 -5 1 -10 -4 -10 -6 0 -11 5 -11 10 0 6 2 10
4 10 3 0 8 -4 11 -10z m81 -5 c-1 -8 -6 -18 -11 -22 -4 -5 -5 -2 0 6 6 11 4
13 -11 8 -18 -7 -18 -7 0 8 24 18 25 18 22 0z m-58 -40 c-3 -3 -9 2 -12 12 -6
14 -5 15 5 6 7 -7 10 -15 7 -18z m-488 11 c0 -2 -8 -10 -17 -17 -16 -13 -17
-12 -4 4 13 16 21 21 21 13z m630 -4 c0 -2 -8 -11 -17 -20 -16 -16 -16 -16
-10 2 5 14 3 17 -8 13 -8 -4 -17 -3 -19 2 -3 4 8 7 25 7 16 0 29 -1 29 -4z
m108 -5 c-1 -2 3 -11 10 -20 19 -23 23 -67 5 -60 -9 4 -10 9 -4 17 6 7 4 18
-5 30 -13 19 -20 56 -8 44 3 -4 4 -8 2 -11z m-1624 -15 c3 -5 -1 -9 -9 -9 -8
0 -12 4 -9 9 3 4 7 8 9 8 2 0 6 -4 9 -8z m49 -7 c-3 -9 -8 -14 -10 -11 -3 3
-2 9 2 15 9 16 15 13 8 -4z m1402 6 c3 -5 2 -12 -3 -15 -5 -3 -9 1 -9 9 0 17
3 19 12 6z m-537 -26 c-3 -3 -9 2 -12 12 -6 14 -5 15 5 6 7 -7 10 -15 7 -18z
m507 16 c-3 -5 -1 -12 5 -16 13 -8 13 -25 -1 -25 -5 0 -7 5 -4 10 3 6 -1 13
-10 16 -13 6 -14 8 -3 15 17 11 20 11 13 0z m-1391 -33 c-3 -4 -11 -8 -17 -7
-9 0 -9 2 0 5 7 3 9 13 6 22 -4 14 -3 14 5 2 6 -8 8 -18 6 -22z m1454 7 c-3
-3 -9 2 -12 12 -6 14 -5 15 5 6 7 -7 10 -15 7 -18z m50 -13 c9 -14 10 -22 3
-22 -6 0 -11 4 -11 9 0 5 -8 17 -17 27 -12 12 -13 16 -4 13 8 -3 21 -15 29
-27z m-1578 12 c0 -8 -19 -13 -24 -6 -3 5 1 9 9 9 8 0 15 -2 15 -3z m1280 -8
c0 -2 -8 -10 -17 -17 -16 -13 -17 -12 -4 4 13 16 21 21 21 13z m-969 -29 c-10
-9 -11 -8 -5 6 3 10 9 15 12 12 3 -3 0 -11 -7 -18z m769 19 c0 -2 -7 -7 -16
-10 -8 -3 -12 -2 -9 4 6 10 25 14 25 6z m474 -5 c3 -5 0 -11 -7 -14 -8 -3 -14
1 -14 9 0 16 13 19 21 5z m-40 -17 c3 -8 2 -12 -4 -9 -6 3 -10 10 -10 16 0 14
7 11 14 -7z m-1554 -4 c0 -5 -2 -10 -4 -10 -3 0 -8 5 -11 10 -3 6 -1 10 4 10
6 0 11 -4 11 -10z m1620 -12 c0 7 5 10 11 7 14 -9 7 -15 -24 -21 -14 -2 -28 0
-32 6 -3 6 1 7 9 4 10 -4 16 -1 16 7 0 11 3 11 10 -1 7 -11 10 -11 10 -2z m53
-3 c-3 -9 -8 -14 -10 -11 -3 3 -2 9 2 15 9 16 15 13 8 -4z m-1508 -5 c3 -6 -1
-7 -9 -4 -18 7 -21 14 -7 14 6 0 13 -4 16 -10z m40 0 c3 -6 -1 -7 -9 -4 -18 7
-21 14 -7 14 6 0 13 -4 16 -10z m895 6 c0 -3 -4 -8 -10 -11 -5 -3 -10 -1 -10
4 0 6 5 11 10 11 6 0 10 -2 10 -4z m377 -21 c0 -8 -4 -12 -9 -9 -5 3 -6 10 -3
15 9 13 12 11 12 -6z m43 -16 c-7 -11 -14 -18 -17 -15 -3 3 0 12 7 21 18 21
23 19 10 -6z m64 -10 c-3 -5 0 -9 5 -9 6 0 11 7 11 15 0 17 16 20 26 4 7 -13
-9 -32 -31 -35 -14 -2 -19 8 -16 29 0 4 -3 7 -9 7 -5 0 -10 5 -10 11 0 8 5 8
15 -1 8 -7 12 -16 9 -21z m-1628 6 c-1 -8 -5 -17 -8 -21 -5 -4 -4 16 1 34 3 9
9 -1 7 -13z m1118 -11 c3 -8 2 -12 -4 -9 -6 3 -10 10 -10 16 0 14 7 11 14 -7z
m469 1 c-3 -9 -8 -14 -10 -11 -3 3 -2 9 2 15 9 16 15 13 8 -4z m125 -9 c9 3 0
-4 -21 -16 -22 -12 -41 -19 -44 -17 -2 3 5 8 16 12 12 3 21 14 22 23 0 10 3
12 5 5 3 -7 13 -10 22 -7z m25 -21 c-3 -9 -8 -14 -10 -11 -3 3 -2 9 2 15 9 16
15 13 8 -4z m-1798 -5 c3 -5 1 -10 -4 -10 -6 0 -11 5 -11 10 0 6 2 10 4 10 3
0 8 -4 11 -10z m282 -29 c0 -11 -5 -18 -9 -15 -4 3 -5 11 -1 19 7 21 12 19 10
-4z m1468 -2 c-4 -13 -3 -19 2 -16 6 4 10 -8 11 -26 l1 -32 -14 33 c-8 18 -12
39 -9 47 9 23 16 18 9 -6z m-3050 -9 c-2 -11 -6 -24 -9 -29 -4 -5 0 -12 6 -14
7 -3 4 -6 -7 -6 -15 -1 -17 -3 -7 -10 11 -7 11 -9 -2 -14 -20 -8 -20 6 -1 43
9 17 13 30 10 30 -4 0 -3 5 0 10 10 16 14 12 10 -10z m963 -5 c-3 -3 -9 2 -12
12 -6 14 -5 15 5 6 7 -7 10 -15 7 -18z m2060 -26 c-3 -8 -7 -3 -11 10 -4 17
-3 21 5 13 5 -5 8 -16 6 -23z m-94 12 c-8 -8 -34 -10 -38 -2 -3 4 6 7 19 7 14
0 22 -2 19 -5z m76 -22 c0 -5 -7 -9 -15 -9 -12 0 -13 -4 -4 -19 10 -14 9 -23
-4 -41 -15 -22 -16 -22 -14 -2 0 11 5 18 9 16 4 -3 8 2 8 11 0 9 -4 14 -9 11
-5 -4 -8 2 -7 11 2 9 8 19 14 21 7 2 9 9 6 14 -4 7 -2 8 4 4 7 -4 12 -11 12
-17z m85 12 c3 -5 2 -12 -3 -15 -5 -3 -9 1 -9 9 0 17 3 19 12 6z m-425 -31 c0
-5 -5 -10 -11 -10 -5 0 -7 5 -4 10 3 6 8 10 11 10 2 0 4 -4 4 -10z m380 -10
c0 -11 -5 -20 -12 -20 -6 0 -8 3 -5 7 4 3 2 12 -4 20 -9 10 -8 13 5 13 9 0 16
-8 16 -20z m-96 -6 c3 -8 2 -12 -4 -9 -6 3 -10 10 -10 16 0 14 7 11 14 -7z
m-2991 -8 c18 -14 34 -61 16 -51 -5 4 -7 11 -4 16 4 5 0 9 -9 9 -8 0 -16 -6
-19 -12 -6 -19 4 -49 14 -42 5 3 6 10 3 16 -4 6 2 6 15 -1 25 -14 28 -23 5
-14 -14 5 -15 3 -5 -18 11 -21 10 -22 -2 -7 -12 16 -15 16 -43 -3 -22 -14 -25
-19 -11 -19 10 0 15 -4 12 -10 -3 -5 1 -10 10 -10 9 0 14 4 11 8 -2 4 5 9 17
9 18 2 18 0 -7 -17 -22 -14 -33 -16 -46 -7 -19 11 -20 39 -3 44 6 2 9 13 6 23
-3 11 -8 18 -12 15 -4 -2 -7 6 -6 17 1 12 8 24 16 26 11 3 11 1 -1 -8 -13 -10
-13 -11 0 -7 8 2 14 10 12 16 -1 7 2 9 9 5 8 -5 9 -3 4 6 -6 9 -4 11 5 5 9 -6
11 -4 5 4 -5 9 -10 10 -18 2 -17 -17 -31 -13 -17 4 15 18 20 18 43 1z m57 10
c0 -2 -8 -10 -17 -17 -16 -13 -17 -12 -4 4 13 16 21 21 21 13z m3035 -40 c-13
-19 -13 -25 -3 -29 7 -3 3 -4 -9 -4 l-21 1 19 28 c25 34 36 37 14 4z m-1047
-11 c-3 -3 -9 2 -12 12 -6 14 -5 15 5 6 7 -7 10 -15 7 -18z m875 10 c-3 -9 -8
-14 -10 -11 -3 3 -2 9 2 15 9 16 15 13 8 -4z m207 -4 c0 -6 -4 -12 -8 -15 -5
-3 -9 1 -9 9 0 8 4 15 9 15 4 0 8 -4 8 -9z m-331 -25 c9 -11 9 -16 -1 -22 -7
-4 -10 -4 -6 1 4 4 3 14 -3 22 -6 7 -9 13 -6 13 2 0 10 -6 16 -14z m-1484 -16
c3 -6 -1 -7 -9 -4 -18 7 -21 14 -7 14 6 0 13 -4 16 -10z m1730 -10 c3 -5 1
-10 -4 -10 -6 0 -11 5 -11 10 0 6 2 10 4 10 3 0 8 -4 11 -10z m41 -2 c5 -7 3
-8 -6 -3 -10 6 -12 4 -7 -8 3 -9 2 -19 -4 -22 -5 -4 -7 -11 -4 -16 4 -5 1 -9
-5 -9 -10 0 -7 40 5 60 8 13 12 13 21 -2z m-3021 -8 c3 -5 1 -10 -4 -10 -6 0
-11 5 -11 10 0 6 2 10 4 10 3 0 8 -4 11 -10z m3058 -11 c-8 -8 -13 -7 -18 2
-5 8 -4 10 3 5 7 -4 12 -2 12 5 0 7 3 9 7 6 4 -4 2 -12 -4 -18z m-115 -44 c-3
-3 -9 2 -12 12 -6 14 -5 15 5 6 7 -7 10 -15 7 -18z m203 6 c-10 -6 -10 -10 -2
-16 9 -5 9 -11 -1 -22 -11 -13 -13 -13 -19 4 -7 18 19 59 30 48 3 -4 -1 -10
-8 -14z m-241 -11 c0 -5 -5 -10 -11 -10 -5 0 -7 5 -4 10 3 6 8 10 11 10 2 0 4
-4 4 -10z m117 -5 c0 -8 -4 -12 -9 -9 -5 3 -6 10 -3 15 9 13 12 11 12 -6z
m-60 -2 c-4 -3 1 -12 11 -20 15 -13 15 -13 -6 -3 -19 9 -23 30 -5 30 4 0 3 -3
0 -7z m-23 -19 c3 -8 2 -12 -4 -9 -6 3 -10 10 -10 16 0 14 7 11 14 -7z m64
-15 c-3 -8 -7 -3 -11 10 -4 17 -3 21 5 13 5 -5 8 -16 6 -23z m-3024 -17 c3 -5
-1 -9 -9 -9 -8 0 -12 4 -9 9 3 4 7 8 9 8 2 0 6 -4 9 -8z m2976 4 c0 -7 -40
-14 -44 -7 -3 4 6 8 20 9 13 1 24 0 24 -2z m35 -6 c3 -6 -1 -7 -9 -4 -18 7
-21 14 -7 14 6 0 13 -4 16 -10z m33 -14 c-7 -8 -15 -12 -17 -11 -5 6 10 25 20
25 5 0 4 -6 -3 -14z m-58 -8 c0 -4 -4 -8 -9 -8 -6 0 -12 4 -15 8 -3 5 1 9 9 9
8 0 15 -4 15 -9z m127 -10 c-3 -8 -6 -5 -6 6 -1 11 2 17 5 13 3 -3 4 -12 1
-19z m-1517 8 c0 -2 -7 -7 -16 -10 -8 -3 -12 -2 -9 4 6 10 25 14 25 6z m-1590
-10 c0 -2 -8 -10 -17 -17 -16 -13 -17 -12 -4 4 13 16 21 21 21 13z m2900 0 c0
-2 -7 -7 -16 -10 -8 -3 -12 -2 -9 4 6 10 25 14 25 6z m70 -12 c0 -2 -11 -3
-24 -2 -14 1 -23 5 -20 9 4 7 44 0 44 -7z m45 6 c3 -5 1 -10 -4 -10 -6 0 -11
5 -11 10 0 6 2 10 4 10 3 0 8 -4 11 -10z m16 -53 c-10 -9 -11 -8 -5 6 3 10 9
15 12 12 3 -3 0 -11 -7 -18z m-1253 -12 c-3 -3 -9 2 -12 12 -6 14 -5 15 5 6 7
-7 10 -15 7 -18z m1356 10 c-7 -16 -24 -21 -24 -6 0 8 7 13 27 20 1 1 0 -6 -3
-14z m-949 -5 c-3 -5 -12 -10 -18 -10 -7 0 -6 4 3 10 19 12 23 12 15 0z m910
2 c-3 -3 3 -14 12 -24 13 -14 13 -18 2 -13 -8 3 -20 14 -26 24 -9 14 -8 18 3
18 8 0 12 -3 9 -5z m-1419 -42 c0 -11 -4 -20 -8 -20 -10 0 -11 24 -1 33 9 9 9
10 9 -13z m1401 5 c0 -8 -4 -12 -9 -9 -5 3 -6 10 -3 15 9 13 12 11 12 -6z
m-3057 1 c0 -2 -7 -7 -16 -10 -8 -3 -12 -2 -9 4 6 10 25 14 25 6z m1980 -2 c0
-8 -19 -13 -24 -6 -3 5 1 9 9 9 8 0 15 -2 15 -3z m1021 -3 c5 8 9 9 9 3 0 -6
-6 -16 -13 -22 -10 -8 -13 -6 -14 11 0 12 1 16 4 8 5 -11 7 -11 14 0z m-59
-19 c-7 -2 -10 -8 -6 -13 3 -5 3 -9 0 -9 -3 0 -10 9 -15 19 -9 17 -8 18 11 13
13 -3 17 -7 10 -10z m-1005 -8 c-3 -3 -12 -4 -19 -1 -8 3 -5 6 6 6 11 1 17 -2
13 -5z m723 -8 c0 -3 -4 -8 -10 -11 -5 -3 -10 -1 -10 4 0 6 5 11 10 11 6 0 10
-2 10 -4z m244 -4 c3 -5 -1 -9 -9 -9 -8 0 -12 4 -9 9 3 4 7 8 9 8 2 0 6 -4 9
-8z m-1224 -22 c0 -5 -5 -10 -11 -10 -5 0 -7 5 -4 10 3 6 8 10 11 10 2 0 4 -4
4 -10z m900 0 c0 -5 -2 -10 -4 -10 -3 0 -8 5 -11 10 -3 6 -1 10 4 10 6 0 11
-4 11 -10z m416 -2 c4 -7 3 -8 -4 -4 -16 10 -15 -6 1 -24 10 -12 9 -12 -4 -2
-9 6 -19 9 -22 5 -4 -3 -7 -2 -7 3 0 9 20 34 26 34 2 0 6 -5 10 -12z m16 -94
c-9 -16 -10 -14 -9 8 1 15 6 23 11 18 4 -4 4 -16 -2 -26z m-3003 -8 c9 -11 9
-16 -1 -22 -7 -4 -10 -4 -6 1 4 4 3 14 -3 22 -6 7 -9 13 -6 13 2 0 10 -6 16
-14z m2969 -13 c0 -10 3 -27 7 -38 6 -16 5 -17 -4 -5 -23 30 -34 53 -22 46 6
-4 11 -2 11 3 0 6 2 11 4 11 3 0 4 -8 4 -17z m-1158 -3 c0 -5 -5 -10 -11 -10
-5 0 -7 5 -4 10 3 6 8 10 11 10 2 0 4 -4 4 -10z m560 0 c0 -5 -2 -10 -4 -10
-3 0 -8 5 -11 10 -3 6 -1 10 4 10 6 0 11 -4 11 -10z m180 6 c0 -3 -4 -8 -10
-11 -5 -3 -10 -1 -10 4 0 6 5 11 10 11 6 0 10 -2 10 -4z m-211 -29 c0 -9 -2
-8 -6 1 -2 6 -10 9 -15 6 -7 -4 -8 -2 -4 5 9 13 26 5 25 -12z m31 -1 c0 -2 -8
-10 -17 -17 -16 -13 -17 -12 -4 4 13 16 21 21 21 13z m-46 -15 c3 -5 -2 -15
-12 -22 -15 -12 -16 -12 -5 2 7 9 10 19 6 22 -3 4 -4 7 0 7 3 0 8 -4 11 -9z
m628 -9 c-7 -2 -10 -8 -6 -13 3 -5 0 -9 -5 -9 -13 0 -13 3 -5 24 3 9 11 13 17
9 8 -5 7 -8 -1 -11z m-2969 -14 c-6 -7 -9 -23 -8 -35 1 -14 -3 -19 -12 -16
-17 6 -17 23 0 23 8 0 7 4 -3 10 -11 7 -11 10 -2 10 7 0 11 4 8 9 -4 5 0 11 6
14 18 6 23 0 11 -15z m2284 -10 c-3 -8 -6 -5 -6 6 -1 11 2 17 5 13 3 -3 4 -12
1 -19z m48 -39 c9 -17 14 -33 11 -37 -3 -3 -6 0 -6 7 0 7 -4 9 -10 6 -6 -4 -7
1 -3 11 4 10 2 15 -3 11 -5 -3 -10 3 -10 14 0 26 3 24 21 -12z m645 1 c8 -16
8 -18 -5 -14 -10 4 -15 0 -15 -10 0 -9 6 -16 13 -16 8 0 7 -3 -3 -9 -8 -6 -18
-7 -24 -4 -5 3 -6 1 -2 -6 4 -6 12 -9 17 -6 5 4 9 2 9 -2 0 -5 -9 -14 -20 -21
-12 -7 -18 -17 -15 -22 3 -6 1 -10 -6 -10 -8 0 -7 -5 2 -17 12 -16 12 -17 -2
-6 -9 7 -19 9 -23 5 -5 -4 1 9 12 28 22 37 23 77 2 72 -6 -1 -9 2 -5 8 5 8 11
7 21 -1 11 -9 14 -8 14 5 0 9 -6 16 -12 16 -9 0 -8 4 2 10 8 5 11 10 7 10 -5
0 -5 5 -2 10 8 13 22 5 35 -20z m-95 1 c3 -5 0 -13 -6 -17 -7 -4 -9 -3 -5 4 3
5 0 13 -6 15 -9 4 -10 6 -1 6 6 1 14 -3 18 -8z m-1195 -15 c0 -2 -8 -10 -17
-17 -16 -13 -17 -12 -4 4 13 16 21 21 21 13z m600 -30 c0 -3 -4 -8 -10 -11 -5
-3 -10 -1 -10 4 0 6 5 11 10 11 6 0 10 -2 10 -4z m45 -6 c3 -6 -1 -7 -9 -4
-18 7 -21 14 -7 14 6 0 13 -4 16 -10z m529 -19 c3 -5 -2 -15 -12 -22 -15 -12
-16 -12 -5 2 7 9 10 19 6 22 -3 4 -4 7 0 7 3 0 8 -4 11 -9z m-554 -15 c0 -2
-7 -7 -16 -10 -8 -3 -12 -2 -9 4 6 10 25 14 25 6z m716 -20 c2 -27 -20 -26
-30 0 -3 8 -2 12 3 9 5 -3 12 -1 16 5 9 14 10 13 11 -14z m-175 -40 c-6 -7 -9
-16 -6 -20 3 -3 -1 -1 -8 5 -9 9 -9 12 1 16 6 3 9 10 6 15 -4 7 -2 8 5 4 8 -6
9 -12 2 -20z m-2691 -11 c0 -2 -7 -1 -17 2 -12 5 -14 3 -8 -7 5 -9 4 -11 -4
-6 -6 4 -14 0 -17 -8 -3 -9 -11 -16 -17 -16 -6 0 -1 10 11 23 12 13 19 27 15
32 -5 4 2 2 15 -4 12 -6 22 -14 22 -16z m30 -20 c0 -5 -5 -3 -10 5 -5 8 -10
20 -10 25 0 6 5 3 10 -5 5 -8 10 -19 10 -25z m2084 7 c3 -5 -1 -9 -9 -9 -8 0
-15 4 -15 9 0 4 4 8 9 8 6 0 12 -4 15 -8z m71 -10 c-3 -3 -11 0 -18 7 -9 10
-8 11 6 5 10 -3 15 -9 12 -12z m-25 -12 c0 -5 -5 -10 -11 -10 -5 0 -7 5 -4 10
3 6 8 10 11 10 2 0 4 -4 4 -10z m-2162 -41 c-3 -8 -7 -3 -11 10 -4 17 -3 21 5
13 5 -5 8 -16 6 -23z m32 27 c0 -3 -4 -8 -10 -11 -5 -3 -10 -1 -10 4 0 6 5 11
10 11 6 0 10 -2 10 -4z m2720 -20 c0 -2 -7 -7 -16 -10 -8 -3 -12 -2 -9 4 6 10
25 14 25 6z m73 -11 c-3 -9 -8 -14 -10 -11 -3 3 -2 9 2 15 9 16 15 13 8 -4z
m-2752 -72 c13 -16 12 -17 -3 -4 -10 7 -18 15 -18 17 0 8 8 3 21 -13z m2581 3
c7 4 8 2 4 -5 -9 -13 -26 -5 -25 12 0 9 2 8 6 -1 2 -6 10 -9 15 -6z m14 -143
c-4 -4 -12 -1 -19 7 -9 10 -9 11 1 6 7 -4 12 -2 13 6 0 11 2 11 6 0 3 -7 2
-16 -1 -19z m-14 -17 c7 4 8 2 4 -4 -4 -7 -2 -12 3 -12 6 0 11 5 11 11 0 5 5
7 12 3 8 -5 6 -11 -7 -20 -15 -12 -20 -11 -31 4 -7 9 -13 22 -13 27 0 6 3 4 6
-3 2 -6 10 -9 15 -6z m-2502 0 c0 -2 -6 -9 -14 -15 -11 -9 -16 -9 -22 0 -4 7
-3 9 4 5 6 -3 13 -2 17 4 6 10 15 14 15 6z m115 -45 c-9 -8 -36 -10 -30 -2 2
4 11 8 20 8 8 0 13 -3 10 -6z m41 -87 c1 -9 0 -13 -4 -10 -3 4 -7 14 -8 22 -1
9 0 13 4 10 3 -4 7 -14 8 -22z m2265 -21 c10 -11 10 -14 2 -9 -7 4 -22 9 -34
11 -17 3 -19 2 -9 -10 7 -8 16 -13 20 -10 5 3 11 1 14 -4 4 -5 2 -12 -3 -16
-6 -3 -8 -13 -5 -23 5 -14 4 -15 -5 -2 -10 13 -12 13 -20 0 -9 -12 -11 -12
-17 3 -3 9 -10 14 -15 11 -5 -3 -9 0 -9 5 0 6 5 11 10 11 6 0 10 8 10 18 0 36
37 45 61 15z m-71 -13 c0 -5 -5 -10 -11 -10 -5 0 -7 5 -4 10 3 6 8 10 11 10 2
0 4 -4 4 -10z m-220 -20 c-8 -5 -19 -10 -25 -10 -5 0 -3 5 5 10 8 5 20 10 25
10 6 0 3 -5 -5 -10z m-1790 -20 c0 -5 -5 -10 -11 -10 -5 0 -7 5 -4 10 3 6 8
10 11 10 2 0 4 -4 4 -10z m1920 0 c0 -5 -2 -10 -4 -10 -3 0 -8 5 -11 10 -3 6
-1 10 4 10 6 0 11 -4 11 -10z m-1925 -60 c3 -5 1 -10 -4 -10 -6 0 -11 5 -11
10 0 6 2 10 4 10 3 0 8 -4 11 -10z m1830 -19 c3 -5 2 -12 -3 -15 -5 -3 -9 1
-9 9 0 17 3 19 12 6z m-108 -43 c-3 -8 -6 -5 -6 6 -1 11 2 17 5 13 3 -3 4 -12
1 -19z m70 14 c9 -5 1 -13 -23 -24 -27 -12 -32 -13 -23 -2 6 8 19 14 28 14 14
0 14 2 1 10 -8 5 -10 10 -5 10 6 0 16 -4 22 -8z m-1746 -15 c-1 -12 -15 -9
-19 4 -3 6 1 10 8 8 6 -3 11 -8 11 -12z m1749 -36 c-6 -12 -9 -25 -6 -30 3 -4
-1 -17 -9 -27 -11 -13 -15 -15 -13 -4 2 8 8 18 13 22 6 4 -1 8 -14 8 -16 0
-22 -4 -17 -15 3 -8 3 -22 0 -30 -6 -14 -8 -13 -19 1 -11 16 -14 15 -33 -4
-25 -25 -49 -29 -49 -7 0 8 4 15 9 15 4 0 8 -5 8 -12 0 -6 3 -8 7 -4 5 4 -1
14 -11 22 -11 8 -16 14 -11 14 4 0 0 9 -9 19 -17 19 -17 20 6 31 20 10 21 10
6 -3 -22 -17 -11 -31 11 -14 14 10 14 10 4 -4 -13 -16 -8 -29 9 -29 5 0 6 5 2
11 -4 7 2 6 17 -1 l24 -13 -20 24 c-12 14 -13 19 -4 11 19 -14 52 -5 42 12 -4
6 1 5 10 -3 15 -12 17 -12 11 3 -5 12 -2 15 10 10 10 -4 18 0 22 10 4 9 9 15
11 12 3 -2 0 -14 -7 -25z m-77 -2 c-8 -8 -13 -7 -18 2 -5 8 -4 10 3 5 7 -4 12
-2 12 5 0 7 3 9 7 6 4 -4 2 -12 -4 -18z m-1453 1 c0 -5 -2 -10 -4 -10 -3 0 -8
5 -11 10 -3 6 -1 10 4 10 6 0 11 -4 11 -10z m1255 -9 c3 -5 2 -12 -3 -15 -5
-3 -9 1 -9 9 0 17 3 19 12 6z m-100 -10 c3 -5 2 -12 -3 -15 -5 -3 -9 1 -9 9 0
17 3 19 12 6z m75 3 c0 -8 -19 -13 -24 -6 -3 5 1 9 9 9 8 0 15 -2 15 -3z
m-105 -23 c3 -5 2 -12 -3 -15 -5 -3 -9 1 -9 9 0 17 3 19 12 6z m92 -26 c0 -8
-4 -12 -9 -9 -5 3 -6 10 -3 15 9 13 12 11 12 -6z m-363 -21 c3 -8 2 -12 -4 -9
-6 3 -10 10 -10 16 0 14 7 11 14 -7z m123 1 c0 -8 -4 -12 -9 -9 -5 3 -6 10 -3
15 9 13 12 11 12 -6z m299 -7 c3 -4 12 -4 20 -1 7 3 -5 -13 -27 -36 -26 -26
-38 -45 -33 -53 5 -8 1 -8 -11 2 -11 9 -16 10 -11 3 4 -7 4 -13 -1 -14 -4 0
-15 -2 -25 -4 -14 -3 -25 14 -32 47 0 4 -10 14 -21 23 -20 16 -19 16 3 5 14
-7 22 -7 22 -1 0 6 8 7 17 4 15 -6 15 -7 -2 -13 -12 -4 -15 -9 -8 -13 7 -4 14
-3 17 2 4 5 20 7 36 5 17 -3 30 -1 30 5 0 6 -8 8 -17 5 -15 -5 -16 -4 -3 5 8
6 23 11 33 11 10 0 16 4 12 10 -3 5 -12 7 -20 3 -8 -3 -15 -1 -15 5 0 11 25
10 36 0z m-216 -8 c0 -5 -5 -10 -11 -10 -5 0 -7 5 -4 10 3 6 8 10 11 10 2 0 4
-4 4 -10z m157 -10 c-8 -13 -13 -15 -23 -6 -12 12 -3 23 20 23 11 0 12 -4 3
-17z m-944 -15 c-3 -9 -8 -14 -10 -11 -3 3 -2 9 2 15 9 16 15 13 8 -4z m-433
-40 c0 -5 -5 -3 -10 5 -5 8 -10 20 -10 25 0 6 5 3 10 -5 5 -8 10 -19 10 -25z
m472 24 c2 -2 1 -3 -1 -1 -2 1 -12 -5 -22 -14 -11 -10 -19 -12 -24 -4 -4 6 -1
9 7 8 7 -2 12 2 11 9 -2 10 23 13 29 2z m324 -7 c0 -10 -6 -19 -13 -19 -8 0
-9 6 -2 19 5 10 11 18 12 18 2 0 3 -8 3 -18z m141 3 c0 -8 -4 -12 -9 -9 -5 3
-6 10 -3 15 9 13 12 11 12 -6z m-283 -4 c-9 -9 -34 -9 -34 -1 0 5 9 8 20 7 10
-1 17 -3 14 -6z m96 -1 c-8 -5 -19 -10 -25 -10 -5 0 -3 5 5 10 8 5 20 10 25
10 6 0 3 -5 -5 -10z m-145 -10 c-3 -5 -12 -10 -18 -10 -7 0 -6 4 3 10 19 12
23 12 15 0z m72 -10 c1 -11 -2 -20 -7 -20 -6 0 -7 17 -1 38 3 8 7 -1 8 -18z
m-270 -6 c-3 -3 -12 -4 -19 -1 -8 3 -5 6 6 6 11 1 17 -2 13 -5z m97 -2 c3 -5
-1 -9 -9 -9 -8 0 -12 4 -9 9 3 4 7 8 9 8 2 0 6 -4 9 -8z m60 0 c3 -5 -1 -9 -9
-9 -8 0 -12 4 -9 9 3 4 7 8 9 8 2 0 6 -4 9 -8z m-94 -22 c0 -5 -8 -10 -17 -10
-15 0 -16 2 -3 10 19 12 20 12 20 0z m180 3 c-1 -22 -18 -35 -35 -26 -12 7
-14 13 -6 17 6 4 11 2 11 -4 0 -6 5 -8 10 -5 6 4 8 11 5 16 -4 5 -1 9 4 9 6 0
11 -3 11 -7z m-90 -13 c0 -5 -2 -10 -4 -10 -3 0 -8 5 -11 10 -3 6 -1 10 4 10
6 0 11 -4 11 -10z m180 -6 c0 -8 -19 -13 -24 -6 -3 5 1 9 9 9 8 0 15 -2 15 -3z
m493 -29 c-7 -21 -12 -19 -10 4 0 11 5 18 9 15 4 -3 5 -11 1 -19z m-793 5 c0
-5 -2 -10 -4 -10 -3 0 -8 5 -11 10 -3 6 -1 10 4 10 6 0 11 -4 11 -10z m440 1
c0 -5 -7 -14 -15 -21 -8 -7 -15 -9 -15 -5 0 4 -7 2 -15 -5 -8 -7 -15 -10 -15
-6 0 3 0 9 0 14 0 7 4 8 36 11 8 0 12 6 9 11 -3 6 -1 10 4 10 6 0 11 -4 11 -9z
m-115 -29 c8 -23 0 -24 -18 -4 -14 15 -15 19 -2 19 8 0 17 -7 20 -15z"/>
<path d="M2577 3847 c-6 -15 28 -17 40 -1 5 5 4 6 -1 2 -5 -4 -15 -3 -21 2 -9
7 -14 6 -18 -3z"/>
<path d="M2656 3818 c5 -7 9 -16 9 -20 0 -3 4 -10 9 -15 5 -4 6 -3 3 4 -4 6
-3 13 3 15 6 2 1 9 -11 16 -17 11 -20 11 -13 0z"/>
<path d="M3066 3692 c-3 -5 1 -9 9 -9 8 0 12 4 9 9 -3 4 -7 8 -9 8 -2 0 -6 -4
-9 -8z"/>
<path d="M3295 3609 c-10 -15 3 -25 16 -12 7 7 7 13 1 17 -6 3 -14 1 -17 -5z"/>
<path d="M3311 3406 c-7 -8 -8 -17 -3 -20 6 -3 15 1 21 8 7 8 8 17 3 20 -6 3
-15 -1 -21 -8z"/>
<path d="M3526 3515 c-11 -8 -15 -15 -9 -15 6 0 16 7 23 15 16 19 11 19 -14 0z"/>
<path d="M3442 3491 c2 -19 -4 -24 -12 -11 -8 12 -10 11 -10 -5 0 -11 -7 -31
-16 -43 -8 -12 -10 -22 -5 -22 6 0 17 14 26 30 9 17 19 30 24 30 5 0 11 6 14
13 3 8 -1 14 -8 14 -8 0 -14 -3 -13 -6z"/>
<path d="M3490 3496 c0 -2 7 -9 15 -16 9 -7 15 -8 15 -2 0 5 -7 12 -15 16 -8
3 -15 4 -15 2z"/>
<path d="M3475 3400 c-3 -5 -2 -10 4 -10 5 0 13 5 16 10 3 6 2 10 -4 10 -5 0
-13 -4 -16 -10z"/>
<path d="M3585 3331 c-3 -5 -1 -12 4 -16 6 -3 8 -13 5 -23 -5 -14 -4 -14 4 -2
7 9 7 19 2 26 -6 6 -7 14 -3 17 3 4 4 7 0 7 -3 0 -8 -4 -12 -9z"/>
<path d="M3436 3232 c-3 -5 1 -9 9 -9 8 0 12 4 9 9 -3 4 -7 8 -9 8 -2 0 -6 -4
-9 -8z"/>
<path d="M3936 2593 c-6 -14 -5 -15 5 -6 7 7 10 15 7 18 -3 3 -9 -2 -12 -12z"/>
<path d="M3893 1795 c0 -8 4 -12 9 -9 5 3 6 10 3 15 -9 13 -12 11 -12 -6z"/>
<path d="M3620 1133 c0 -11 5 -11 20 -3 11 6 20 12 20 13 0 2 -9 3 -20 3 -11
0 -20 -6 -20 -13z"/>
<path d="M3035 780 c3 -5 8 -10 11 -10 2 0 4 5 4 10 0 6 -5 10 -11 10 -5 0 -7
-4 -4 -10z"/>
<path d="M2552 4168 c-12 -12 -5 -38 11 -38 6 0 7 3 4 7 -4 3 -2 12 4 19 13
15 -4 27 -19 12z"/>
<path d="M2393 4160 c-28 -11 -29 -16 -3 -16 11 0 22 6 24 13 3 7 4 13 3 12
-1 0 -12 -4 -24 -9z"/>
<path d="M2506 4142 c-3 -5 1 -9 9 -9 8 0 15 4 15 9 0 4 -4 8 -9 8 -6 0 -12
-4 -15 -8z"/>
<path d="M2656 4093 c-6 -14 -5 -15 5 -6 7 7 10 15 7 18 -3 3 -9 -2 -12 -12z"/>
<path d="M2793 4071 c0 -11 5 -18 9 -15 4 3 5 11 1 19 -7 21 -12 19 -10 -4z"/>
<path d="M2707 4059 c3 -11 9 -22 14 -25 5 -3 6 3 2 13 -6 15 -4 16 9 5 11 -9
18 -10 23 -2 3 5 -1 12 -9 15 -9 3 -22 7 -30 9 -9 3 -12 -2 -9 -15z"/>
<path d="M2455 4061 c-3 -6 -14 -8 -24 -6 -15 3 -18 -1 -13 -18 5 -20 6 -20
13 -1 5 13 8 14 8 4 1 -13 3 -13 10 -1 5 8 16 11 26 8 9 -4 14 -3 10 3 -3 6 1
10 9 10 18 0 20 -11 6 -28 -5 -7 -3 -6 6 2 9 8 13 19 10 25 -9 13 -53 15 -61
2z"/>
<path d="M2610 4045 c-7 -9 -11 -17 -9 -20 3 -2 10 5 17 15 14 24 10 26 -8 5z"/>
<path d="M2626 4021 c-12 -18 -26 -27 -35 -24 -12 3 -12 2 1 -7 10 -6 15 -17
11 -27 -5 -13 -3 -13 13 3 12 11 16 22 10 26 -15 10 14 40 32 33 12 -4 13 -3
2 10 -15 19 -12 20 -34 -14z"/>
<path d="M2855 4032 c-4 -4 -11 -8 -16 -8 -5 -1 -13 -2 -19 -3 -5 0 -10 -5
-10 -10 0 -12 27 -8 41 6 6 6 18 9 25 6 8 -3 14 -3 14 0 0 9 -28 16 -35 9z"/>
<path d="M1986 4018 c5 -8 2 -9 -9 -5 -10 3 -17 2 -17 -4 0 -6 -5 -7 -11 -3
-7 4 -10 1 -7 -6 2 -8 10 -16 18 -18 8 -3 10 0 5 8 -6 9 -4 12 6 8 8 -3 20 0
26 7 10 10 9 14 -3 19 -10 4 -13 2 -8 -6z"/>
<path d="M2777 4023 c20 -7 -3 -40 -26 -38 -11 1 -24 5 -28 10 -5 4 -3 5 4 1
6 -3 14 -2 17 3 4 5 -2 8 -11 7 -10 -2 -18 -7 -18 -12 0 -5 -4 -14 -8 -21 -4
-6 -3 -14 2 -17 5 -4 12 -2 16 4 4 6 11 8 16 5 5 -4 9 0 9 7 0 7 5 5 11 -6 9
-15 13 -16 20 -5 5 9 9 10 9 2 0 -14 23 -11 44 6 9 7 16 10 16 5 0 -5 5 -2 10
6 9 13 10 13 10 0 0 -13 1 -13 11 0 9 13 10 13 8 0 -1 -8 1 -23 6 -33 7 -17 8
-16 22 3 11 16 18 19 26 11 6 -6 16 -11 22 -11 5 0 1 7 -10 16 -17 13 -18 16
-5 25 13 9 12 10 -2 6 -9 -3 -19 -3 -21 1 -2 4 -3 2 -1 -4 1 -6 -4 -11 -11
-11 -8 0 -14 3 -13 6 2 19 -4 22 -17 11 -11 -9 -15 -10 -15 -1 0 8 -6 7 -16
-3 -8 -9 -20 -14 -25 -10 -5 3 -9 2 -8 -3 3 -19 -2 -23 -21 -13 -16 8 -18 15
-10 29 10 19 4 32 -14 30 -6 0 -6 -3 1 -6z"/>
<path d="M2650 4001 c0 -6 4 -13 10 -16 6 -3 7 1 4 9 -7 18 -14 21 -14 7z"/>
<path d="M2681 3973 c-14 -31 -14 -33 -3 -33 4 -1 17 -7 29 -15 15 -10 24 -11
29 -4 4 8 9 7 14 -2 6 -9 12 -10 22 -2 19 15 84 11 80 -6 -1 -7 2 -9 9 -6 8 5
8 10 0 18 -6 6 -11 20 -11 30 0 17 -2 18 -17 6 -9 -8 -23 -14 -32 -14 -9 0
-22 -4 -29 -9 -7 -4 -16 -5 -19 -2 -4 3 -1 6 6 6 7 0 9 5 6 11 -5 6 -12 4 -22
-8 -14 -17 -14 -17 -8 2 5 15 3 17 -6 8 -19 -19 -40 -4 -33 23 8 32 0 30 -15
-3z"/>
<path d="M2862 3955 c1 -10 9 -20 16 -21 7 -1 8 0 2 3 -5 2 -8 9 -5 13 3 5 0
12 -6 15 -7 5 -10 1 -7 -10z"/>
<path d="M1789 3957 c-1 -4 -2 -13 -3 -19 0 -7 -9 -13 -19 -13 -10 0 -27 -11
-39 -25 -13 -16 -18 -19 -14 -7 10 31 -5 18 -16 -15 -14 -40 -13 -43 12 -44
11 -1 17 3 14 8 -3 4 -10 6 -15 3 -5 -3 -6 1 -2 10 3 9 9 13 12 8 9 -13 46 9
46 27 0 8 8 14 17 14 21 -2 34 34 19 49 -6 6 -12 8 -12 4z m-38 -60 c-10 -9
-11 -8 -5 6 3 10 9 15 12 12 3 -3 0 -11 -7 -18z"/>
<path d="M2629 3917 c-9 -18 -9 -20 2 -9 18 17 27 15 32 -5 4 -14 5 -13 6 3 1
31 -26 38 -40 11z"/>
<path d="M2775 3911 c-7 -12 7 -21 38 -23 14 -1 23 -6 20 -11 -3 -4 -7 -6 -10
-3 -3 3 -17 -3 -31 -14 -13 -11 -28 -17 -33 -14 -5 3 -9 0 -9 -5 0 -14 6 -14
33 1 27 14 56 18 63 7 3 -5 13 -3 23 3 14 8 16 14 7 23 -8 10 -14 9 -24 -4 -7
-9 -11 -10 -7 -3 8 15 -13 44 -25 37 -5 -3 -11 -1 -15 5 -8 13 -22 13 -30 1z"/>
<path d="M2913 3894 c-3 -8 -1 -20 5 -26 8 -8 9 -5 5 11 -4 17 -2 20 11 15 9
-3 16 -4 16 -1 0 14 -31 15 -37 1z"/>
<path d="M1655 3889 c-4 -6 -5 -12 -2 -15 2 -3 7 2 10 11 7 17 1 20 -8 4z"/>
<path d="M2987 3871 c-4 -17 -3 -21 5 -13 5 5 8 16 6 23 -3 8 -7 3 -11 -10z"/>
<path d="M1660 3851 c0 -7 -5 -9 -12 -5 -10 6 -10 4 0 -8 10 -13 10 -18 1 -24
-8 -4 -9 -3 -5 4 4 7 2 12 -4 12 -7 0 -10 -6 -7 -14 8 -20 -4 -28 -20 -14 -10
8 -12 8 -8 -3 3 -8 15 -21 28 -28 19 -13 21 -12 9 1 -16 20 7 41 34 32 11 -3
15 -2 9 3 -5 4 -12 17 -13 28 -4 23 -12 34 -12 16z"/>
<path d="M1741 3844 c0 -11 3 -14 6 -6 3 7 2 16 -1 19 -3 4 -6 -2 -5 -13z"/>
<path d="M3053 3842 c0 -10 6 -19 13 -19 15 0 11 30 -4 35 -6 2 -10 -5 -9 -16z"/>
<path d="M3096 3842 c-3 -5 1 -9 9 -9 8 0 12 4 9 9 -3 4 -7 8 -9 8 -2 0 -6 -4
-9 -8z"/>
<path d="M3150 3836 c0 -2 8 -10 18 -17 15 -13 16 -12 3 4 -13 16 -21 21 -21
13z"/>
<path d="M1576 3778 c5 -7 -10 -12 -28 -9 -4 0 -5 -6 -1 -15 3 -9 1 -14 -7
-12 -6 2 -19 -8 -28 -22 -9 -13 -12 -21 -6 -17 13 8 38 -16 27 -26 -3 -4 -1
-7 5 -7 17 0 15 15 -3 30 -8 7 -15 17 -15 22 0 6 7 5 15 -2 14 -12 19 -7 16
13 -1 5 9 6 21 3 13 -3 17 -3 10 0 -10 5 -10 10 2 28 12 19 12 23 1 23 -8 0
-12 -4 -9 -9z"/>
<path d="M1686 3781 c-4 -5 -2 -12 3 -15 5 -4 12 -2 15 3 4 5 2 12 -3 15 -5 4
-12 2 -15 -3z"/>
<path d="M3153 3775 c0 -8 4 -12 9 -9 5 3 6 10 3 15 -9 13 -12 11 -12 -6z"/>
<path d="M3200 3780 c-19 -12 -7 -23 27 -26 18 -2 23 0 14 5 -11 7 -11 10 0
15 8 3 3 3 -10 0 -16 -4 -21 -3 -17 5 9 13 6 14 -14 1z"/>
<path d="M3257 3759 c-4 -14 -11 -20 -21 -16 -8 3 -18 2 -21 -3 -4 -6 6 -10
20 -10 19 0 26 -4 22 -14 -3 -8 0 -17 7 -19 10 -4 12 6 9 36 -5 50 -9 55 -16
26z"/>
<path d="M1590 3760 c0 -5 5 -10 10 -10 6 0 10 5 10 10 0 6 -4 10 -10 10 -5 0
-10 -4 -10 -10z"/>
<path d="M3160 3735 c10 -13 10 -19 -4 -33 -9 -10 -16 -23 -16 -28 0 -5 4 -4
8 1 4 6 16 15 26 21 25 14 32 34 12 34 -9 0 -16 5 -16 10 0 6 -5 10 -11 10 -8
0 -7 -5 1 -15z"/>
<path d="M3293 3735 c-6 -11 -7 -29 -2 -40 5 -13 8 -15 8 -5 1 13 2 13 11 0 5
-8 10 -11 10 -7 0 4 6 2 14 -5 8 -7 12 -16 9 -20 -2 -4 3 -5 11 -2 9 4 16 1
16 -6 0 -7 7 -10 17 -6 9 4 20 1 24 -6 4 -7 12 -9 16 -4 4 5 2 11 -5 13 -6 3
-9 9 -6 15 3 5 15 2 27 -9 l21 -18 -20 27 c-15 20 -21 23 -27 12 -4 -8 -13
-14 -18 -14 -6 0 -8 4 -5 8 2 4 0 14 -6 22 -8 12 -9 12 -4 -2 3 -10 2 -18 -3
-18 -4 0 -13 17 -19 38 -8 26 -10 29 -8 10 4 -32 0 -34 -20 -14 -17 17 -19 30
-2 20 7 -4 8 -3 4 5 -4 6 -11 9 -16 6 -4 -3 -10 1 -12 7 -3 9 -8 6 -15 -7z"/>
<path d="M1475 3720 c-3 -5 -1 -10 4 -10 6 0 11 5 11 10 0 6 -2 10 -4 10 -3 0
-8 -4 -11 -10z"/>
<path d="M1570 3706 c0 -2 7 -9 15 -16 13 -11 14 -10 9 4 -5 14 -24 23 -24 12z"/>
<path d="M3455 3680 c-3 -5 -1 -10 4 -10 6 0 11 5 11 10 0 6 -2 10 -4 10 -3 0
-8 -4 -11 -10z"/>
<path d="M3477 3653 c-12 -12 -7 -30 8 -30 10 0 12 4 5 12 -5 7 -7 15 -3 18 3
4 4 7 1 7 -2 0 -8 -3 -11 -7z"/>
<path d="M1426 3619 c2 -4 -8 -17 -22 -28 -16 -13 -24 -27 -20 -36 7 -20 26
-19 26 2 0 15 2 14 16 -3 13 -15 12 -13 -1 10 -15 25 -15 28 -2 23 12 -4 14
-2 10 11 -6 15 -5 16 13 2 17 -14 18 -13 7 1 -7 9 -11 18 -8 21 3 2 -2 5 -10
5 -8 0 -12 -4 -9 -8z"/>
<path d="M3392 3619 c2 -7 -2 -13 -9 -14 -26 -1 -45 -55 -19 -55 17 0 41 28
33 37 -4 3 -2 12 4 19 7 8 7 14 -1 19 -6 4 -9 1 -8 -6z m-7 -29 c3 -5 1 -10
-4 -10 -6 0 -11 5 -11 10 0 6 2 10 4 10 3 0 8 -4 11 -10z"/>
<path d="M3436 3614 c-23 -23 -20 -30 4 -9 11 10 20 20 20 22 0 7 -9 2 -24
-13z"/>
<path d="M3513 3605 c0 -8 4 -12 9 -9 5 3 6 10 3 15 -9 13 -12 11 -12 -6z"/>
<path d="M1355 3581 c-3 -5 -2 -12 3 -15 5 -3 9 1 9 9 0 17 -3 19 -12 6z"/>
<path d="M1235 3429 c-4 -6 -5 -12 -2 -15 2 -3 7 2 10 11 7 17 1 20 -8 4z"/>
<path d="M3705 3350 c4 -6 2 -17 -4 -24 -9 -11 -8 -14 6 -12 10 0 18 -4 18 -9
0 -19 29 -42 47 -37 12 3 18 -1 18 -12 0 -9 7 -19 16 -23 13 -5 13 -7 2 -14
-9 -6 -9 -9 -1 -9 6 0 15 5 18 10 4 6 11 7 17 4 7 -4 8 -2 4 5 -4 6 -10 9 -14
7 -4 -2 -13 2 -20 10 -7 8 -10 14 -6 14 4 0 -2 8 -14 18 -16 14 -18 22 -10 30
8 8 5 9 -11 5 -17 -4 -21 -1 -21 18 -1 24 -1 24 -16 4 -16 -20 -16 -20 -9 3 5
16 2 22 -10 22 -9 0 -13 -5 -10 -10z"/>
<path d="M3815 3291 c-3 -5 -2 -12 3 -15 5 -3 9 1 9 9 0 17 -3 19 -12 6z"/>
<path d="M1180 3255 c7 -8 17 -12 22 -9 6 4 5 10 -3 15 -22 14 -33 10 -19 -6z"/>
<path d="M3588 3219 c3 -17 9 -27 16 -23 6 3 3 -1 -6 -9 -10 -8 -18 -20 -18
-28 0 -12 2 -12 9 0 5 8 14 10 22 6 8 -5 11 -4 6 0 -4 5 5 22 20 39 15 17 22
26 14 19 -11 -10 -17 -9 -26 4 -21 29 -42 24 -37 -8z m27 12 c3 -5 2 -12 -3
-15 -5 -3 -9 1 -9 9 0 17 3 19 12 6z"/>
<path d="M1134 3205 c-10 -8 -14 -15 -8 -15 6 0 17 7 24 15 16 19 9 19 -16 0z"/>
<path d="M3850 3206 c0 -2 7 -7 16 -10 8 -3 12 -2 9 4 -6 10 -25 14 -25 6z"/>
<path d="M3745 3178 c5 -26 11 -32 20 -19 3 6 0 11 -7 11 -11 0 -10 2 0 9 11
7 11 9 -1 14 -12 4 -15 0 -12 -15z"/>
<path d="M3918 3193 c7 -3 16 -2 19 1 4 3 -2 6 -13 5 -11 0 -14 -3 -6 -6z"/>
<path d="M3891 3173 c-1 -17 16 -25 25 -12 4 7 3 9 -4 5 -5 -3 -13 0 -15 6 -4
9 -6 10 -6 1z"/>
<path d="M1073 3127 l-20 -24 21 -13 c18 -11 19 -11 9 1 -16 20 -1 42 23 32
17 -6 17 -5 5 10 -17 21 -13 21 -38 -6z"/>
<path d="M3901 3124 c0 -11 3 -14 6 -6 3 7 2 16 -1 19 -3 4 -6 -2 -5 -13z"/>
<path d="M3940 3120 c-1 -8 -2 -19 -1 -24 1 -5 -8 -6 -19 -3 -17 4 -19 3 -9
-9 16 -19 21 -18 43 13 11 14 15 23 9 20 -6 -4 -14 -1 -16 5 -4 9 -6 9 -7 -2z"/>
<path d="M3669 3101 c14 -25 20 -27 17 -4 -2 9 -8 19 -15 21 -10 3 -10 0 -2
-17z"/>
<path d="M3953 3076 c-15 -19 -23 -22 -37 -14 -13 7 -17 7 -12 0 3 -6 2 -13
-4 -17 -6 -4 -8 -11 -4 -16 3 -5 10 -7 15 -3 5 3 7 10 4 15 -4 5 -1 9 4 9 6 0
11 -5 11 -11 0 -6 8 -1 18 11 16 20 20 21 25 7 4 -11 2 -14 -9 -10 -7 3 -14 0
-14 -5 0 -21 18 -21 36 0 11 12 13 18 5 13 -11 -6 -13 -4 -8 9 5 11 3 15 -5
10 -8 -5 -9 -2 -5 9 9 24 2 21 -20 -7z"/>
<path d="M3765 3080 c3 -5 8 -10 11 -10 2 0 4 5 4 10 0 6 -5 10 -11 10 -5 0
-7 -4 -4 -10z"/>
<path d="M3670 3060 c0 -5 5 -10 10 -10 6 0 10 5 10 10 0 6 -4 10 -10 10 -5 0
-10 -4 -10 -10z"/>
<path d="M1050 3010 c0 -5 5 -10 11 -10 5 0 7 5 4 10 -3 6 -8 10 -11 10 -2 0
-4 -4 -4 -10z"/>
<path d="M860 2771 c0 -5 5 -13 10 -16 6 -3 10 -2 10 4 0 5 -4 13 -10 16 -5 3
-10 2 -10 -4z"/>
<path d="M873 2707 c18 -15 24 -33 8 -22 -5 3 -12 1 -16 -5 -3 -5 3 -10 13
-10 32 0 34 26 4 39 -24 10 -25 10 -9 -2z"/>
<path d="M4085 2680 c3 -5 10 -10 16 -10 5 0 9 5 9 10 0 6 -7 10 -16 10 -8 0
-12 -4 -9 -10z"/>
<path d="M853 2615 c0 -8 4 -12 9 -9 5 3 6 10 3 15 -9 13 -12 11 -12 -6z"/>
<path d="M4044 2608 c4 -20 26 -21 26 -1 0 14 -2 15 -9 4 -6 -9 -10 -10 -14
-2 -4 8 -5 8 -3 -1z"/>
<path d="M837 2561 c-4 -17 -3 -21 5 -13 5 5 8 16 6 23 -3 8 -7 3 -11 -10z"/>
<path d="M887 2563 c3 -7 9 -10 14 -7 14 8 11 21 -5 21 -8 0 -12 -6 -9 -14z"/>
<path d="M920 2569 c0 -5 5 -7 10 -4 6 3 10 8 10 11 0 2 -4 4 -10 4 -5 0 -10
-5 -10 -11z"/>
<path d="M4081 2556 c-9 -10 -9 -16 -1 -21 6 -4 14 -4 17 -1 4 3 0 6 -8 6 -10
1 -8 5 5 15 11 8 15 15 9 15 -6 0 -16 -6 -22 -14z"/>
<path d="M4045 2520 c-4 -6 1 -7 11 -3 14 5 16 3 11 -11 -5 -12 -2 -16 11 -14
14 2 17 -4 17 -34 -1 -21 3 -34 9 -31 5 4 7 -1 3 -10 -8 -20 -1 -22 17 -5 11
11 11 15 -3 26 -9 7 -10 11 -3 7 6 -3 12 -1 12 5 0 11 -12 28 -44 60 -22 22
-32 25 -41 10z"/>
<path d="M877 2513 c-10 -9 -9 -23 1 -23 5 0 9 7 9 15 0 17 -1 18 -10 8z"/>
<path d="M4038 2446 c-16 -11 -16 -15 -3 -32 8 -10 15 -15 15 -10 0 5 9 1 20
-9 20 -18 20 -18 17 15 -5 38 -25 53 -49 36z m32 -16 c0 -4 -6 -10 -14 -13
-12 -5 -14 2 -7 31 2 7 21 -10 21 -18z"/>
<path d="M4130 2400 c0 -5 5 -10 10 -10 6 0 10 5 10 10 0 6 -4 10 -10 10 -5 0
-10 -4 -10 -10z"/>
<path d="M4036 2315 c4 -8 10 -15 15 -15 4 0 6 7 3 15 -4 8 -10 15 -15 15 -4
0 -6 -7 -3 -15z"/>
<path d="M770 2240 c0 -5 5 -10 11 -10 5 0 7 5 4 10 -3 6 -8 10 -11 10 -2 0
-4 -4 -4 -10z"/>
<path d="M813 2213 c1 -17 4 -19 14 -11 15 12 18 22 4 14 -5 -4 -11 0 -14 6
-3 7 -4 3 -4 -9z"/>
<path d="M4133 2205 c0 -8 4 -12 9 -9 5 3 6 10 3 15 -9 13 -12 11 -12 -6z"/>
<path d="M839 2198 c-3 -6 -6 -48 -4 -48 1 0 9 8 16 17 12 14 12 16 0 8 -11
-6 -13 -4 -8 8 5 13 1 25 -4 15z"/>
<path d="M4100 2161 c0 -6 9 -9 19 -8 11 0 17 5 15 9 -7 11 -34 10 -34 -1z"/>
<path d="M841 2100 c11 -6 15 -19 12 -37 -3 -26 -3 -26 6 -5 6 12 17 22 24 22
8 0 14 7 14 14 0 11 -5 13 -19 5 -12 -6 -18 -6 -18 1 0 5 -8 10 -17 10 -16 -1
-16 -2 -2 -10z"/>
<path d="M4115 2080 c-3 -5 -1 -10 4 -10 6 0 11 5 11 10 0 6 -2 10 -4 10 -3 0
-8 -4 -11 -10z"/>
<path d="M4086 1995 c17 -13 17 -14 2 -15 -9 0 -20 -4 -23 -10 -4 -6 2 -7 15
-2 12 4 21 11 21 15 -1 4 -1 12 -1 17 0 6 -8 10 -17 10 -15 0 -14 -2 3 -15z"/>
<path d="M4056 1922 c-3 -5 1 -9 9 -9 8 0 12 4 9 9 -3 4 -7 8 -9 8 -2 0 -6 -4
-9 -8z"/>
<path d="M3983 1848 c2 -16 -2 -33 -10 -39 -10 -9 -10 -15 -2 -25 6 -8 15 -12
19 -9 5 3 11 1 15 -5 3 -5 2 -10 -2 -10 -5 0 -18 -7 -29 -15 -18 -14 -17 -15
18 -13 29 2 35 5 26 15 -6 7 -7 13 -2 13 4 0 2 6 -4 13 -7 6 -17 12 -22 12 -6
0 -9 5 -7 10 1 6 5 9 8 8 4 -1 15 8 25 20 10 12 15 19 10 15 -5 -4 -17 3 -28
15 l-19 22 4 -27z"/>
<path d="M860 1826 c0 -2 8 -10 18 -17 15 -13 16 -12 3 4 -13 16 -21 21 -21
13z"/>
<path d="M885 1724 c9 -9 19 -13 23 -10 3 4 0 11 -8 16 -24 15 -33 11 -15 -6z"/>
<path d="M1010 1721 c0 -5 7 -12 16 -15 8 -3 12 -11 8 -17 -5 -8 -3 -9 5 -5 9
6 8 13 -5 27 -19 21 -24 23 -24 10z"/>
<path d="M890 1695 c0 -2 7 -8 15 -15 12 -10 15 -10 15 2 0 8 -7 15 -15 15 -8
0 -15 -1 -15 -2z"/>
<path d="M980 1680 c0 -5 5 -10 11 -10 5 0 7 5 4 10 -3 6 -8 10 -11 10 -2 0
-4 -4 -4 -10z"/>
<path d="M3990 1675 c0 -11 -6 -30 -14 -41 -13 -17 -13 -21 -1 -21 8 0 12 4 9
9 -3 4 1 8 9 8 22 0 28 25 12 47 -14 17 -14 17 -15 -2z"/>
<path d="M935 1660 c-3 -5 -1 -10 4 -10 6 0 11 5 11 10 0 6 -2 10 -4 10 -3 0
-8 -4 -11 -10z"/>
<path d="M1033 1555 c0 -7 6 -11 14 -8 7 3 13 6 13 8 0 2 -6 5 -13 8 -8 3 -14
-1 -14 -8z"/>
<path d="M1051 1524 c0 -11 3 -14 6 -6 3 7 2 16 -1 19 -3 4 -6 -2 -5 -13z"/>
<path d="M3878 1523 c7 -3 16 -2 19 1 4 3 -2 6 -13 5 -11 0 -14 -3 -6 -6z"/>
<path d="M3942 1515 c4 -6 0 -19 -8 -30 -13 -17 -16 -18 -25 -5 -8 13 -11 13
-23 -2 -7 -10 -15 -15 -18 -13 -3 3 -4 -9 -3 -27 1 -22 -6 -41 -21 -58 l-23
-25 35 -2 c36 -2 40 2 25 27 -6 8 -7 19 -3 25 7 11 12 32 14 53 1 7 6 11 12 9
6 -3 9 -11 7 -18 -2 -8 -4 -20 -4 -26 0 -7 -4 -13 -9 -13 -19 0 -6 -26 14 -27
17 -2 19 0 9 7 -12 7 -12 11 -3 23 7 8 12 19 11 23 -3 21 2 35 11 29 5 -3 7 0
4 9 -3 8 1 16 12 18 16 3 16 4 -1 18 -11 8 -16 10 -13 5z m-69 -139 c4 -10 0
-14 -13 -13 -14 1 -16 4 -8 14 13 16 15 16 21 -1z"/>
<path d="M1008 1483 c6 -2 10 -8 8 -12 -3 -4 1 -8 9 -8 11 0 12 4 4 14 -6 7
-17 13 -23 12 -7 0 -6 -2 2 -6z"/>
<path d="M1115 1400 c3 -5 8 -10 11 -10 2 0 4 5 4 10 0 6 -5 10 -11 10 -5 0
-7 -4 -4 -10z"/>
<path d="M3816 1402 c2 -3 -1 -11 -7 -19 -8 -9 -8 -13 -1 -13 16 0 26 20 15
30 -6 4 -8 5 -7 2z"/>
<path d="M1080 1300 c-9 -6 -10 -10 -3 -10 6 0 15 5 18 10 8 12 4 12 -15 0z"/>
<path d="M1160 1283 c0 -7 5 -13 11 -13 6 0 8 -9 4 -21 -5 -15 -4 -19 4 -15 6
4 11 3 11 -2 0 -17 -13 -22 -29 -10 -14 10 -14 10 -3 -2 7 -8 17 -16 23 -16 5
-1 14 -2 20 -3 5 0 7 -6 3 -13 -5 -7 -3 -8 6 -3 10 6 9 11 -5 22 -11 7 -14 13
-9 13 21 0 33 -23 23 -43 -8 -14 -7 -22 2 -31 9 -8 11 -7 6 6 -3 10 -2 20 2
23 11 6 23 -37 13 -45 -4 -3 -8 -12 -10 -20 -2 -10 4 -7 18 8 28 30 33 28 15
-7 -11 -22 -12 -32 -3 -37 6 -4 8 -3 4 4 -3 5 6 24 20 41 23 28 24 31 7 32
-10 1 -22 1 -28 0 -5 -1 -1 6 9 14 18 14 15 20 -7 16 -5 -1 -6 8 -2 19 5 15 3
18 -9 14 -9 -3 -20 3 -28 15 -7 12 -17 21 -21 21 -5 0 -17 10 -28 23 -10 12
-18 16 -19 10z"/>
<path d="M1255 1281 c6 -11 4 -13 -8 -8 -23 9 -21 0 2 -13 15 -7 19 -7 17 5
-1 8 -6 18 -11 22 -4 5 -5 2 0 -6z"/>
<path d="M3697 1258 c2 -5 11 -8 19 -8 8 0 14 -4 14 -10 0 -10 -13 -14 -42
-11 -10 1 -18 -2 -18 -6 0 -13 29 -50 30 -37 0 5 -5 15 -11 21 -9 9 -7 12 7
12 23 -1 65 8 72 16 3 2 10 1 16 -4 7 -6 17 0 29 15 10 13 13 24 7 24 -5 0
-10 -4 -10 -9 0 -6 -9 -8 -20 -6 -11 2 -27 -4 -36 -13 -15 -15 -16 -15 -10 5
6 17 2 20 -23 19 -16 -1 -27 -4 -24 -8z"/>
<path d="M1291 1204 c0 -11 3 -14 6 -6 3 7 2 16 -1 19 -3 4 -6 -2 -5 -13z"/>
<path d="M1354 1184 c2 -11 -2 -22 -8 -27 -6 -4 2 -5 17 -3 22 4 27 2 23 -10
-3 -8 1 -14 9 -14 22 0 18 13 -14 44 -24 23 -29 25 -27 10z"/>
<path d="M1318 1183 c7 -3 16 -2 19 1 4 3 -2 6 -13 5 -11 0 -14 -3 -6 -6z"/>
<path d="M1299 1123 c0 -5 -2 -19 -5 -33 -3 -19 -2 -21 6 -10 7 11 10 11 10 2
0 -8 5 -10 13 -6 8 5 7 2 -2 -9 -8 -10 -11 -20 -7 -24 3 -3 6 -1 6 7 0 10 3
10 17 -1 9 -8 26 -14 37 -14 12 -1 20 -6 18 -13 -1 -7 5 -15 13 -18 8 -3 12
-10 9 -15 -3 -5 2 -6 10 -3 9 3 16 10 16 16 0 5 5 6 12 2 7 -4 8 -3 4 5 -4 6
-11 9 -16 6 -5 -3 -11 4 -15 15 -3 11 -9 19 -13 19 -22 -3 -34 3 -29 15 4 9
-2 12 -18 11 -18 -3 -22 1 -18 19 3 15 2 17 -5 8 -7 -11 -10 -9 -15 7 -5 20
-26 30 -28 14z m77 -75 c3 -4 -1 -5 -10 -4 -8 1 -18 5 -22 8 -3 4 1 5 10 4 8
-1 18 -5 22 -8z"/>
<path d="M3522 1078 c-16 -16 -15 -41 1 -36 6 3 13 14 13 26 1 26 2 26 -14 10z"/>
<path d="M1436 1067 c3 -10 9 -15 12 -12 3 3 0 11 -7 18 -10 9 -11 8 -5 -6z"/>
<path d="M3575 1060 c-3 -6 1 -7 9 -4 18 7 21 14 7 14 -6 0 -13 -4 -16 -10z"/>
<path d="M3551 1048 c-1 -17 -13 -23 -36 -18 -5 1 -7 -2 -3 -6 4 -4 2 -14 -5
-23 -11 -14 -10 -14 6 -2 14 11 17 11 17 0 1 -8 7 -3 15 11 8 14 14 19 15 11
0 -8 2 -12 5 -9 3 3 1 16 -4 29 -7 17 -10 19 -10 7z"/>
<path d="M3586 1042 c-2 -4 4 -8 14 -8 10 0 16 4 14 8 -3 4 -9 8 -14 8 -5 0
-11 -4 -14 -8z"/>
<path d="M1320 1020 c8 -5 20 -10 25 -10 6 0 3 5 -5 10 -8 5 -19 10 -25 10 -5
0 -3 -5 5 -10z"/>
<path d="M3466 1002 c-3 -5 1 -9 9 -9 8 0 12 4 9 9 -3 4 -7 8 -9 8 -2 0 -6 -4
-9 -8z"/>
<path d="M1437 971 c-17 -18 -17 -18 8 -15 20 2 24 0 15 -11 -8 -9 -7 -14 5
-18 8 -4 14 -3 13 1 -1 4 3 17 10 29 9 16 9 24 0 29 -7 4 -8 3 -4 -4 4 -7 1
-12 -9 -12 -9 0 -13 5 -10 10 10 16 -9 10 -28 -9z"/>
<path d="M3455 969 c-4 -6 -5 -12 -2 -15 2 -3 7 2 10 11 7 17 1 20 -8 4z"/>
<path d="M3489 963 c-13 -16 -12 -17 4 -4 16 13 21 21 13 21 -2 0 -10 -8 -17
-17z"/>
<path d="M1503 958 c-17 -21 -11 -46 13 -57 16 -7 22 -17 19 -31 -2 -11 0 -18
6 -15 5 4 6 11 3 17 -4 6 1 8 14 4 14 -5 21 -1 25 13 2 11 0 24 -6 30 -8 8 -7
11 2 11 7 0 9 5 5 11 -10 16 -23 -8 -19 -37 1 -15 -2 -21 -11 -17 -7 2 -11 13
-9 24 2 10 -1 21 -6 25 -5 3 -8 1 -7 -4 2 -6 -1 -9 -7 -8 -5 0 -10 11 -9 24 0
26 0 26 -13 10z"/>
<path d="M1688 872 c-11 -15 -11 -15 2 -6 8 6 26 10 39 8 30 -5 23 5 -7 11
-12 2 -27 -4 -34 -13z"/>
<path d="M1877 869 c-9 -6 -15 -15 -11 -20 3 -6 -5 -7 -22 -3 -23 6 -26 4 -21
-10 4 -9 2 -16 -2 -16 -15 0 -22 -33 -11 -44 8 -8 9 -5 4 9 -7 18 -6 18 9 7 9
-8 20 -11 26 -8 5 3 11 1 13 -5 2 -7 9 -5 17 5 12 14 12 16 -3 10 -9 -3 -16
-1 -16 5 0 6 3 10 8 10 20 -3 32 2 26 13 -4 7 -3 8 4 4 8 -5 9 -13 2 -25 -5
-10 -6 -21 -3 -25 3 -3 1 -6 -5 -6 -7 0 -12 -5 -12 -10 0 -6 11 -8 24 -6 14 2
27 -1 30 -7 2 -7 3 4 1 23 -3 21 -14 43 -28 56 -18 16 -22 25 -15 37 10 20 9
20 -15 6z m-27 -40 c0 -8 5 -8 15 1 22 18 18 3 -5 -20 -22 -22 -49 -18 -31 4
6 7 8 16 4 19 -3 4 -1 7 5 7 7 0 12 -5 12 -11z m67 -61 c-3 -8 -6 -5 -6 6 -1
11 2 17 5 13 3 -3 4 -12 1 -19z"/>
<path d="M3183 858 c-4 -7 -8 -19 -10 -27 -2 -17 25 -46 35 -36 4 3 -1 11 -10
16 -10 5 -15 16 -12 24 8 20 21 19 26 -3 3 -10 12 -19 21 -19 9 0 14 4 11 9
-3 5 -9 6 -14 3 -4 -3 -11 6 -14 20 -7 27 -20 32 -33 13z"/>
<path d="M1700 836 c0 -2 7 -7 16 -10 8 -3 12 -2 9 4 -6 10 -25 14 -25 6z"/>
<path d="M1780 781 c0 -6 4 -13 10 -16 6 -3 7 1 4 9 -7 18 -14 21 -14 7z"/>
<path d="M2829 774 c-11 -13 8 -30 31 -28 8 1 21 2 29 3 10 1 11 4 2 14 -6 8
-8 16 -5 19 3 3 -7 5 -21 4 -15 0 -31 -6 -36 -12z"/>
<path d="M3239 773 c-13 -16 -12 -17 4 -4 16 13 21 21 13 21 -2 0 -10 -8 -17
-17z"/>
<path d="M3211 764 c0 -11 3 -14 6 -6 3 7 2 16 -1 19 -3 4 -6 -2 -5 -13z"/>
<path d="M2655 729 c-4 -6 -5 -12 -2 -15 2 -3 7 2 10 11 7 17 1 20 -8 4z"/>
<path d="M1931 708 c5 -10 15 -16 21 -12 7 4 7 9 -1 14 -6 3 4 6 22 6 29 -1
32 -3 24 -18 -6 -9 -16 -14 -22 -12 -6 3 -19 -3 -30 -11 -19 -16 -19 -16 2 -6
28 14 36 14 28 -1 -4 -7 2 -3 13 9 11 12 22 20 25 17 3 -3 4 2 3 13 -2 14 -12
18 -49 19 -42 1 -45 0 -36 -18z"/>
<path d="M3055 720 c3 -5 8 -10 11 -10 2 0 4 5 4 10 0 6 -5 10 -11 10 -5 0 -7
-4 -4 -10z"/>
<path d="M2603 692 c21 -23 21 -29 2 -29 -8 0 -15 7 -15 16 0 14 -2 14 -10 1
-13 -21 22 -37 75 -34 27 2 45 -2 48 -9 2 -7 3 -4 2 5 -3 20 32 21 57 1 12
-11 18 -12 24 -2 4 7 3 10 -4 5 -6 -3 -14 -1 -19 6 -14 22 -51 39 -59 27 -3
-6 -17 -9 -31 -6 -16 3 -27 -1 -30 -10 -4 -10 -10 -5 -21 16 -8 17 -19 31 -25
31 -5 0 -3 -8 6 -18z"/>
<path d="M2134 688 c-4 -7 -2 -8 4 -4 7 4 12 2 12 -5 0 -6 -8 -9 -20 -6 -11 3
-23 1 -26 -5 -3 -5 -14 -2 -25 8 -10 9 -19 13 -19 8 0 -5 9 -15 20 -22 12 -7
18 -17 15 -22 -3 -5 0 -12 6 -16 7 -4 9 -3 5 4 -10 16 15 27 26 11 8 -11 9
-11 5 1 -3 11 2 16 16 18 15 1 18 -1 9 -7 -11 -6 -10 -10 5 -16 10 -5 22 -7
27 -6 4 1 15 -4 24 -11 9 -8 13 -8 9 -2 -4 7 0 15 9 18 22 8 24 8 20 -6 -1 -7
-1 -9 2 -5 2 4 9 4 15 -2 9 -6 12 -2 13 15 2 19 -1 22 -11 14 -14 -12 -31 3
-21 18 2 4 0 14 -6 22 -8 13 -9 12 -5 -2 6 -19 -15 -42 -28 -30 -5 4 -5 -2 -1
-13 5 -15 4 -17 -4 -9 -6 6 -13 20 -14 30 -3 21 -52 38 -62 22z"/>
<path d="M2935 680 c3 -5 8 -10 11 -10 2 0 4 5 4 10 0 6 -5 10 -11 10 -5 0 -7
-4 -4 -10z"/>
<path d="M2006 665 c-11 -8 -15 -15 -9 -15 6 0 16 7 23 15 16 19 11 19 -14 0z"/>
<path d="M1905 659 c-4 -6 -5 -12 -2 -15 2 -3 7 2 10 11 7 17 1 20 -8 4z"/>
<path d="M2898 663 c7 -3 16 -2 19 1 4 3 -2 6 -13 5 -11 0 -14 -3 -6 -6z"/>
<path d="M2474 646 c1 -8 5 -18 8 -22 4 -3 5 1 4 10 -1 8 -5 18 -8 22 -4 3 -5
-1 -4 -10z"/>
<path d="M2559 633 c-13 -16 -12 -17 4 -4 9 7 17 15 17 17 0 8 -8 3 -21 -13z"/>
<path d="M2442 618 c-7 -7 -12 -17 -12 -22 0 -6 5 -3 11 7 6 9 15 14 21 11 7
-4 8 -2 4 4 -9 15 -9 15 -24 0z"/>
<path d="M2640 625 c0 -7 30 -13 34 -7 3 4 -4 9 -15 9 -10 1 -19 0 -19 -2z"/>
<path d="M2476 602 c-3 -5 1 -9 9 -9 8 0 12 4 9 9 -3 4 -7 8 -9 8 -2 0 -6 -4
-9 -8z"/>
</g>
</svg>
